
# 468 vertices

v 1.746230982074000 2.694772677704000 -3.862940704897000
v 0.676133362566000 2.786493961722000 -3.916387591823000
v -0.318296797793000 2.413941947671000 -3.811532896200000
v -2.485128239552000 0.015424053842000 -3.914483770393000
v 1.959419204611000 2.597500789943000 -3.884780709287000
v -2.198883177102000 0.529372418383000 -3.891010512642000
v 2.347256641928000 2.349918743905000 -3.777964850511000
v 2.457686015426000 2.268765918336000 -3.889927409618000
v -2.906951314198000 -1.143764172098000 -3.872957565129000
v -2.891675630810000 -1.095599223202000 -3.832591243270000
v 1.374856443556000 -2.240118709451000 -3.891008010588000
v 1.240597213980000 -2.301934999553000 -3.815298427049000
v -0.326116270791000 2.410187220550000 -3.825856968850000
v -0.407742891106000 2.363707385581000 -3.865889934852000
v 2.120180638784000 2.503818426361000 -3.792064018240000
v 1.630807306871000 2.733663052575000 -3.885149586109000
v 1.697880192409000 2.710287174237000 -3.827107206537000
v -1.067886294171000 1.879908727826000 -3.860216790218000
v -1.165109439473000 1.787849962721000 -3.849041015061000
v 0.227712515225000 2.666709848395000 -3.858584432683000
v 0.055182126191000 2.601969569055000 -3.869365261220000
v 3.271597412147000 1.168015617134000 -3.811767031814000
v 2.770327215684000 -1.242821386696000 -3.787048856808000
v 2.706747365163000 -1.315593777737000 -3.855274807596000
v -3.076750047340000 -2.418742692341000 -3.758123918385000
v -3.077387307472000 -2.407659775008000 -3.751066993003000
v -3.075310223836000 -2.419953202658000 -3.735332521330000
v 3.410627813023000 0.537025073288000 -3.805449476438000
v -1.093045155121000 1.857615600941000 -3.879808879904000
v -1.068359357841000 1.879752170682000 -3.864446242957000
v -0.962995197696000 1.965497043280000 -3.814923888634000
v -0.858868486673000 2.052769423971000 -3.899431004136000
v -3.045022842144000 -1.841504980989000 -3.824548950722000
v -3.036920461435000 -1.798886669862000 -3.799440693139000
v 0.844208439053000 -2.459668190934000 -3.775572135065000
v 3.103983650092000 1.514410045300000 -3.781718953909000
v 3.145964820977000 1.444757443035000 -3.887879565133000
v 3.160359486295000 1.416051659768000 -3.794597772967000
v 1.530699690864000 2.759593339707000 -3.812103175111000
v -0.116380189534000 2.522467639873000 -3.834615986335000
v -2.359747001850000 0.245487632168000 -3.806136875936000
v 1.033099312370000 2.810518954529000 -3.785273268879000
v 0.705350070340000 2.785931746339000 -3.775291954517000
v 1.284505555429000 2.799588463641000 -3.766812022598000
v 1.193792143936000 2.807796414256000 -3.777211533083000
v 0.602939578772000 2.768435222244000 -3.763569256145000
v 0.935332004880000 2.805892858826000 -3.784670190279000
v 0.804098221392000 2.797000536099000 -3.781508749170000
v 0.486348652473000 2.740861905542000 -3.743512945776000
v 0.582910003276000 2.764698314948000 -3.761000427893000
v 0.455960901801000 2.732590838782000 -3.737334787357000
v 1.424083377917000 2.779469817398000 -3.758948328848000
v 1.528128880681000 2.759280502325000 -3.779183457057000
v 1.781534267554000 2.678912187028000 -3.803298454715000
v 2.250171444976000 2.418914517964000 -3.758048982131000
v 2.119122394327000 2.504181589161000 -3.780836694660000
v 1.854082496925000 2.648202545869000 -3.803989794212000
v 2.018569767082000 2.561774950450000 -3.792003603189000
v 1.923113149920000 2.613622212666000 -3.800323658953000
v 1.614861189449000 2.735165982098000 -3.790174471295000
v 1.687302565444000 2.712522723170000 -3.797335903956000
v 2.683700677611000 2.061908609920000 -3.780110423947000
v 2.344579506740000 2.351545180507000 -3.763031946504000
v 2.467651409260000 2.258000372873000 -3.776675096485000
v 2.700895938427000 2.044704616430000 -3.779355963225000
v 2.923134200580000 1.786697165748000 -3.746657574269000
v 2.874928302233000 1.849069461604000 -3.757874014328000
v 2.820027979269000 1.914561374094000 -3.767081341953000
v 2.776353196747000 1.964194315936000 -3.772817855628000
v 2.529975340577000 2.205690320403000 -3.780405597514000
v 2.569874535403000 2.170538262096000 -3.781723146192000
v 2.272848127984000 2.402609814733000 -3.752855236962000
v 3.000070787495000 1.677270211899000 -3.748630910178000
v 3.334372145497000 0.967326573364000 -3.781273646057000
v 3.202255640093000 1.332308851551000 -3.796925482303000
v 3.232580701280000 1.263763916983000 -3.798484605968000
v 3.366407530432000 0.837645469061000 -3.763548906014000
v 3.302038373847000 1.078920515495000 -3.792636884183000
v 3.272654757583000 1.164791885410000 -3.797706666688000
v 3.103776321211000 1.514644288018000 -3.778243830755000
v 3.160247283161000 1.416114380697000 -3.790994968536000
v 3.410132068132000 0.214683112234000 -3.772988838402000
v 3.399302377402000 0.654241843717000 -3.782232869177000
v 3.396622874586000 0.673089801388000 -3.780685704931000
v 3.380496620127000 -0.009351212958000 -3.737432497421000
v 3.393521446099000 0.065121347059000 -3.752036422982000
v 3.415655436499000 0.422809469717000 -3.786710992845000
v 3.416774735559000 0.351370237455000 -3.784646378937000
v 3.374304210233000 0.799628816333000 -3.766500002980000
v 3.415482497064000 0.428333379508000 -3.786794836005000
v 3.410285601791000 0.538576990480000 -3.786936693192000
v 3.367979958793000 0.830001758183000 -3.762246471245000
v 3.091157354734000 -0.778251062038000 -3.750089474546000
v 3.343937708470000 -0.160783252780000 -3.712208154622000
v 3.311690188164000 -0.269152729637000 -3.728549934029000
v 3.239234914696000 -0.469117253303000 -3.748342781063000
v 2.976378661557000 -0.967814472139000 -3.731979999960000
v 3.048487297705000 -0.850312726415000 -3.743975252125000
v 3.291282429611000 -0.327656229558000 -3.734973048986000
v 3.240861481425000 -0.465005302080000 -3.748045081749000
v 3.158185784648000 -0.648753486593000 -3.753356122298000
v 3.118818594654000 -0.726001033030000 -3.751900641295000
v 2.773478890594000 -1.238648418309000 -3.762071771648000
v 2.369879846615000 -1.632246062812000 -3.768679269380000
v 2.169064730810000 -1.788416600473000 -3.746198969856000
v 2.660722981514000 -1.363640863181000 -3.773681463943000
v 2.683526758480000 -1.339337049245000 -3.771966657016000
v 2.526458354892000 -1.495882005177000 -3.776726410701000
v 2.515748081067000 -1.505781911379000 -3.776547754368000
v 2.326285130223000 -1.668306187389000 -3.765200363903000
v 2.237771481380000 -1.736858341898000 -3.755107574476000
v 2.898876555726000 -1.078140005583000 -3.735192865390000
v 2.855595261899000 -1.135997258732000 -3.746066475630000
v 2.939070039731000 -1.020751703781000 -3.722718339414000
v 1.050257852469000 -2.383506696177000 -3.773897766112000
v 1.992735818959000 -1.907401323923000 -3.766936800032000
v 1.900968821667000 -1.961674230724000 -3.773837079904000
v 1.745403249471000 -2.050549571110000 -3.783074573128000
v 2.018622078622000 -1.890401023735000 -3.763661303786000
v 0.977622117358000 -2.411580858131000 -3.767658962654000
v 1.393217317604000 -2.229600907274000 -3.786571833315000
v 1.241633773369000 -2.300875933220000 -3.783525470630000
v 1.606172555385000 -2.123184714364000 -3.785911657003000
v 1.661457731697000 -2.095013365931000 -3.785312070048000
v 0.362268834751000 -2.606323932686000 -3.798648018237000
v -0.089945670539000 -2.706947251539000 -3.791887479785000
v -0.294906350432000 -2.740779361856000 -3.779555405044000
v -0.421846402228000 -2.756729510335000 -3.767979305418000
v 0.009851894995000 -2.687933806434000 -3.795892582543000
v 0.130667349758000 -2.661926235028000 -3.798387788495000
v 0.652546086706000 -2.522020800914000 -3.787470810970000
v 0.844198300005000 -2.459666584693000 -3.774822027679000
v 0.369473789263000 -2.604414813421000 -3.798514922707000
v 0.503072999272000 -2.566734720026000 -3.794252374486000
v 0.951004462989000 -2.421143788482000 -3.764802832352000
v -1.153660618774000 -2.800198237163000 -3.781285724065000
v -1.630457160955000 -2.779466389858000 -3.784195633734000
v -0.831561795675000 -2.792191598524000 -3.764591515043000
v -1.005740771536000 -2.799031813558000 -3.775298933129000
v -2.051550822080000 -2.727339523656000 -3.764138275831000
v -1.948083337184000 -2.742911798757000 -3.770916089678000
v -1.801350643818000 -2.762687419251000 -3.778983597679000
v -1.775278371313000 -2.765771783405000 -3.780129709927000
v -1.473446016459000 -2.789342478065000 -3.785277503388000
v -1.367440846039000 -2.795175617867000 -3.785449453261000
v -2.956449853888000 -2.479195215470000 -3.685168040417000
v -2.736604966422000 -2.562901944971000 -3.716488603058000
v -2.842110566638000 -2.526645230344000 -3.703862567359000
v -2.240008954444000 -2.689781609704000 -3.749025963664000
v -2.369389102844000 -2.661900424095000 -3.743728125312000
v -2.537928160072000 -2.619065676452000 -3.732824623466000
v -2.484024675493000 -2.633365763019000 -3.736680665368000
v -3.063896218013000 -2.426460255356000 -3.662596635071000
v -3.070726374182000 -2.422637906922000 -3.660873031869000
v -2.189598278348000 -2.699816249479000 -3.750581047553000
v -3.062917119699000 -2.059348444282000 -3.712343310123000
v -3.074459558914000 -2.350566787570000 -3.673431683313000
v -3.072678919849000 -2.403837648115000 -3.663889159236000
v -3.043135500285000 -1.871516152508000 -3.729755227789000
v -3.031556802541000 -1.792094372472000 -3.735115089545000
v -3.070812876983000 -2.421174677234000 -3.659982058124000
v 0.425451225179000 -0.015846204394000 -1.862670205872000
v -2.743799928387000 -0.630000144180000 -3.783711166215000
v -2.980498103558000 -1.492800457032000 -3.753227122012000
v -2.575537943740000 -0.200791835911000 -3.766154667070000
v -2.717194680991000 -0.558159661278000 -3.781781970805000
v -2.629027129175000 -0.326008915196000 -3.774127057797000
v -2.969120500619000 -1.433561358495000 -3.758477235242000
v -2.971513975692000 -1.444448583431000 -3.757708260204000
v -2.442503984222000 0.079886253542000 -3.739775167957000
v -2.504903704854000 -0.045724662628000 -3.753435545500000
v -2.911099017923000 -1.187910889913000 -3.773225668940000
v -2.883225882517000 -1.077838115686000 -3.778620046452000
v -2.988922687014000 -1.543022023811000 -3.747985221099000
v -2.009674770081000 0.803211184182000 -3.789728628913000
v -2.094320737202000 0.680531073120000 -3.786889649452000
v -1.800352334289000 1.082351527738000 -3.785010247859000
v -1.929725113213000 0.913240846498000 -3.789579689387000
v -1.631253915235000 1.290016712620000 -3.772560629349000
v -1.732584700461000 1.168094745324000 -3.781241292206000
v -2.223831329887000 0.475721975753000 -3.774261309891000
v -2.145907476248000 0.601713266691000 -3.783197189040000
v -2.402586055708000 0.158252498222000 -3.739983613837000
v -2.295056181168000 0.356350203818000 -3.764053737873000
v -2.368018394676000 0.224393276203000 -3.748912053453000
v -0.963573880181000 1.964615104297000 -3.807985644247000
v -1.006991463630000 1.928238619715000 -3.810087388623000
v -1.313176182967000 1.638870120275000 -3.803356504699000
v -1.506266564326000 1.434877531300000 -3.784996138665000
v -1.431317362003000 1.516422345370000 -3.793674283379000
v -0.816717389356000 2.079627904335000 -3.795607853384000
v -1.100434230163000 1.846068902971000 -3.812063725380000
v -1.163019484834000 1.787217076431000 -3.810882267840000
v -0.664795058511000 2.191131340499000 -3.777895907217000
v -0.760181291397000 2.122483449563000 -3.789909729654000
v -1.601815166102000 1.323719163612000 -3.769206399192000
v -0.111378256362000 2.522712077979000 -3.800285222568000
v 0.055768725960000 2.597573918601000 -3.789922764625000
v -0.447981840617000 2.334518188319000 -3.791286150548000
v -0.318870979664000 2.412802624606000 -3.799603854440000
v 0.321962402677000 2.693175639691000 -3.754574243587000
v -0.599139618222000 2.237239024455000 -3.777058832909000
v -0.499225947962000 2.302329367347000 -3.787093105808000
v 0.242290740561000 2.668417520005000 -3.768230004177000
v 0.105717138575000 2.617511273074000 -3.784884608736000
v 0.437584694910000 2.726930330462000 -3.733021136058000
v 1.370917996629000 2.786830706813000 -3.752575554199000
v 1.400500354204000 2.782641597571000 -3.753228858541000
v 1.202572389279000 0.769516893949000 -2.059650108979000
v 0.824292740627000 0.844382586646000 -2.068921890317000
v 2.956284000586000 1.739299928091000 -3.736044660672000
v 2.962601699604000 1.730309733981000 -3.735997670283000
v 0.938697970447000 0.339761325955000 -1.667243710897000
v 1.197779055310000 0.757514229899000 -2.049049405776000
v 3.353025005303000 -0.122807136241000 -3.708490539282000
v 1.497365633486000 0.441370919640000 -2.104409540863000
v 3.349546410255000 -0.137264952715000 -3.707549982727000
v 1.421793710031000 0.043354761511000 -2.095153369320000
v 0.948195813186000 0.326390511964000 -1.667243710897000
v 1.467098105883000 0.440860187857000 -2.079539123592000
v 2.156990496658000 -1.796566015354000 -3.744041496845000
v 2.155754470203000 -1.797402041796000 -3.743998260811000
v 0.939761439526000 -0.248078540140000 -2.052155406195000
v 0.945482342619000 0.309604033781000 -1.667243710897000
v 1.399611309895000 0.052238762275000 -2.075693317201000
v -0.608076083208000 -2.777207257360000 -3.749820629740000
v -0.599587501618000 -2.776268980567000 -3.749571302567000
v -0.646499402349000 -2.779776027020000 -3.749770511544000
v 0.923102849227000 0.293341183031000 -1.667243710897000
v 0.930840782608000 -0.217432939903000 -2.026337173811000
v 0.463643735564000 0.011284996349000 -1.843172209818000
v -2.420841290745000 0.121842068714000 -3.734681046801000
v 0.434658220730000 0.007256438810000 -1.860591792984000
v -2.420433639552000 0.122640386030000 -3.734665178624000
v 0.870447934717000 0.289723173859000 -1.667243710897000
v 0.463811640043000 0.011389497370000 -1.843096377498000
v -0.644844014701000 2.205033109576000 -3.775083366812000
v 0.353313152308000 0.526594754004000 -2.076288410501000
v -0.611960601699000 2.228148174002000 -3.775182101179000
v 0.911264116313000 0.344378275133000 -1.667243710897000
v 0.824778664607000 0.835258877051000 -2.061439011590000
v 0.889309976997000 0.329038025770000 -1.667243710897000
v 0.372146202764000 0.512812958897000 -2.057025073056000
v -3.071895877107000 -2.421614362198000 -3.894200275107000
v 0.225678930542000 2.668666784336000 -3.939515589542000
v -0.228107391181000 2.468994740263000 -3.915783518613000
v 0.431219233168000 2.734111610412000 -3.970738077330000
v 0.396529866897000 2.723521652693000 -3.965095710157000
v -0.556926776560000 2.273858367466000 -3.939910169421000
v -0.516853225867000 2.299477924254000 -3.935464307853000
v -0.329798940748000 2.412241619641000 -3.920300217851000
v -0.426807137391000 2.355171782018000 -3.927009145926000
v 0.043587876293000 2.599752706399000 -3.920812143025000
v 0.156906337141000 2.643047749132000 -3.932116953229000
v -0.095149160236000 2.536777567489000 -3.915136462751000
v -0.159689645514000 2.505125032718000 -3.914426265706000
v 1.031101541689000 2.813282508751000 -3.896417343900000
v 1.404261415351000 2.787294127686000 -3.913979397149000
v 1.280884148600000 2.804416649299000 -3.900448842217000
v 1.209219970963000 2.810476795715000 -3.896107968039000
v 0.675611261806000 2.786699120510000 -3.926176947551000
v 0.863259347882000 2.805614848056000 -3.906046062718000
v 0.834824067716000 2.803792470096000 -3.908151226814000
v 0.510131149303000 2.754590234584000 -3.957899699847000
v 0.561275997089000 2.766437177822000 -3.946353805105000
v 0.446628499753000 2.738298740664000 -3.973667920476000
v 2.224454499686000 2.440944153367000 -3.948285209186000
v 1.864743499688000 2.645127063515000 -3.898141446442000
v 1.958676996335000 2.598374260428000 -3.905798328707000
v 1.745527630381000 2.695572462002000 -3.895785759830000
v 1.626077787149000 2.735534106619000 -3.902188337606000
v 2.104877370699000 2.515418937933000 -3.926151803705000
v 2.212131021872000 2.448831278604000 -3.945828754227000
v 1.583196330191000 2.747755846401000 -3.906245671524000
v 1.517320073732000 2.764803609109000 -3.913909372724000
v 1.460934915218000 2.776248774507000 -3.923074295222000
v 1.460474872746000 2.774380664597000 -3.924773252469000
v 2.635264095164000 2.111931490509000 -3.917158905181000
v 2.726924664187000 2.020257747708000 -3.916020754515000
v 2.925310537104000 1.787688047113000 -3.935395903988000
v 2.875873343239000 1.851252827932000 -3.926981295157000
v 2.829086701829000 1.906813973947000 -3.921956229194000
v 2.760535930753000 1.984488347377000 -3.916980199747000
v 2.519330916484000 2.217690145226000 -3.925114574800000
v 2.588437541199000 2.156655551769000 -3.919088963641000
v 2.330356389324000 2.365372948493000 -3.953879886629000
v 2.460192187492000 2.267542284524000 -3.931792072939000
v 2.282264113096000 2.399918031428000 -3.963143385909000
v 2.058592716485000 2.018987069033000 -4.352516964819000
v 3.006038014868000 1.672772964409000 -3.933017897310000
v 3.087370523507000 1.544212940532000 -3.917964378276000
v 3.338231384274000 0.958327907488000 -3.943375584712000
v 3.196585259386000 1.348577976875000 -3.906477347998000
v 3.239123852290000 1.252454542722000 -3.909562630071000
v 3.251752394982000 1.221358474510000 -3.911449702689000
v 3.146372594658000 1.444340199260000 -3.909551688060000
v 3.188849420135000 1.364068531688000 -3.906671259663000
v 3.292870638406000 1.106949414323000 -3.922587264187000
v 3.306366226567000 1.067573920497000 -3.926935110487000
v 2.959969381193000 1.738564407773000 -3.944210980920000
v 2.941184613657000 1.728962130742000 -3.962596302950000
v 3.412867870118000 0.234955409282000 -3.878486931310000
v 3.403344819789000 0.624296373156000 -3.896973154382000
v 3.385306542298000 0.750776570838000 -3.916571420020000
v 3.378068254530000 -0.025043627072000 -3.903578117561000
v 3.394856272065000 0.071284809041000 -3.890739328730000
v 3.415182246870000 0.461631229025000 -3.882101781146000
v 3.417262545973000 0.328727728785000 -3.876855989847000
v 3.366112295431000 0.845806277382000 -3.936427481270000
v 3.383669893938000 0.760317643653000 -3.918300788765000
v 3.404481651268000 0.612120103362000 -3.895631897446000
v 3.414950413050000 0.469107834645000 -3.882501308333000
v 3.413790901956000 0.494215418667000 -3.884189499446000
v 3.350431742352000 0.909572265197000 -3.952298765028000
v 3.075693270518000 -0.806815877066000 -3.915242511424000
v 3.344043932273000 -0.166732996440000 -3.902620950291000
v 3.302630152324000 -0.304817908350000 -3.890741732069000
v 3.232961173927000 -0.486710695035000 -3.888489855993000
v 2.974476280807000 -0.973933630777000 -3.946146009608000
v 3.050166431121000 -0.850087652538000 -3.922640626230000
v 3.301544680215000 -0.307901406137000 -3.890618859535000
v 3.270751461874000 -0.391264440968000 -3.888579499589000
v 3.167283985711000 -0.632353325549000 -3.895453642206000
v 3.147013009813000 -0.672177864128000 -3.899406856400000
v 2.554253219503000 -0.813045201559000 -4.375143520354000
v 3.364611077415000 -0.081459911358000 -3.914394479344000
v 3.361010483901000 -0.081202323186000 -3.917675894431000
v 2.412492210125000 -1.597165941043000 -3.899781089105000
v 2.111515786425000 -1.829190110756000 -3.928682982097000
v 2.152815916694000 -1.801173443639000 -3.921944046503000
v 2.643166183459000 -1.383868983147000 -3.903365764712000
v 2.566198770298000 -1.459535530943000 -3.898906630657000
v 2.491595814144000 -1.528494157718000 -3.897764987472000
v 2.770287928011000 -1.244156429888000 -3.921425117989000
v 2.704986611325000 -1.318121839484000 -3.910554603146000
v 2.301198216434000 -1.689244376514000 -3.905910729268000
v 2.282802917460000 -1.703530992187000 -3.907600561990000
v 2.890392281333000 -1.093664811869000 -3.951904524348000
v 2.879619598618000 -1.107948274882000 -3.948600961808000
v 2.925417042008000 -1.044037607727000 -3.964958384474000
v 2.555501023949000 -0.815606172446000 -4.373136761915000
v 1.092934715156000 -2.367551381919000 -3.904663098559000
v 1.376673457722000 -2.239287176624000 -3.896945655974000
v 1.185695692979000 -2.327332948131000 -3.900646679240000
v 1.989190794548000 -1.909545335937000 -3.926331106665000
v 1.803861137061000 -2.019143789679000 -3.908877565503000
v 1.769002090935000 -2.038986820691000 -3.906266882660000
v 0.877408673383000 -2.448760104490000 -3.924655911122000
v 0.962401526866000 -2.418097230307000 -3.915585298286000
v 1.499880856275000 -2.177746323040000 -3.898686571805000
v 1.684985715696000 -2.083445779659000 -3.902907300456000
v 2.062568396253000 -1.861332392442000 -3.937440308282000
v 2.060676407844000 -1.858287514176000 -3.940889560542000
v 0.324298857319000 -2.615542907770000 -3.889744749042000
v -0.154999386811000 -2.719915412136000 -3.885250399294000
v -0.252651151554000 -2.736255551035000 -3.889020622256000
v -0.601662604321000 -2.777265243810000 -3.919043195597000
v -0.397676530108000 -2.754659666081000 -3.900198761145000
v -0.006639792918000 -2.691599908431000 -3.882843598562000
v 0.129991943825000 -2.662185139776000 -3.883802878808000
v 0.752054453209000 -2.490580726379000 -3.924027299411000
v 0.676167301494000 -2.515183096174000 -3.915630141207000
v 0.424483081166000 -2.588928259832000 -3.895249992670000
v 0.512396471542000 -2.564135892644000 -3.901448807748000
v 0.819945593902000 -2.467939689438000 -3.932140036509000
v 0.668643598077000 -2.047556440413000 -4.362077291755000
v -1.164957101650000 -2.800381124840000 -3.902782028600000
v -1.643111389150000 -2.778419762732000 -3.906503542287000
v -0.813447893197000 -2.791431635166000 -3.921410203783000
v -1.010334225907000 -2.799171246171000 -3.908654727395000
v -2.059627103426000 -2.726551075388000 -3.937617278041000
v -1.893142188614000 -2.751541542902000 -3.921555689372000
v -1.886816032354000 -2.752386923020000 -3.921034100806000
v -1.761272597113000 -2.767257334879000 -3.912306018775000
v -1.501811527649000 -2.787316044728000 -3.903355044279000
v -1.339436649314000 -2.796262049654000 -3.900824266760000
v -2.082457106603000 -2.248099411955000 -4.344234497640000
v -0.696354470539000 -2.783632628845000 -3.931717197744000
v -0.682444047347000 -2.751811525058000 -3.959243918061000
v -2.955270418471000 -2.480636151239000 -3.884925100224000
v -2.743847215042000 -2.562210774937000 -3.884906891098000
v -2.827602559227000 -2.533503898917000 -3.881986394696000
v -2.243027332423000 -2.690071821325000 -3.937897140482000
v -2.387288705181000 -2.658914283429000 -3.918031197155000
v -2.596273722795000 -2.603929773671000 -3.897241371413000
v -2.416531914291000 -2.651623125377000 -3.914795309317000
v -3.044557707786000 -2.436927247369000 -3.892443809907000
v -3.066514928965000 -2.424625701842000 -3.895552482584000
v -2.156589896609000 -2.707326832356000 -3.950947138621000
v -2.092066390437000 -2.254371841694000 -4.338593478006000
v -3.072203816624000 -2.063049780481000 -3.874167698371000
v -3.048461075502000 -1.842762626333000 -3.884688340517000
v -3.082997788827000 -2.413333701889000 -3.884536784850000
v -3.031668677804000 -1.733255716974000 -3.894933495217000
v -3.009886531549000 -1.603232662149000 -3.908951227389000
v -3.085789540872000 -2.346908344543000 -3.877707002681000
v -3.084993359235000 -2.388437836961000 -3.881022913855000
v -3.074240061457000 -2.419856944076000 -3.893734576292000
v -2.749465018312000 -0.631806439688000 -3.878353560291000
v -2.602040096210000 -0.245733152661000 -3.893821063788000
v -2.700496993461000 -0.498569677528000 -3.881867813905000
v -2.635277896364000 -0.325055303874000 -3.887827416136000
v -2.951542846376000 -1.319864248538000 -3.908726384958000
v -2.981560204326000 -1.450916258720000 -3.922602802845000
v -2.911042115062000 -1.155151786070000 -3.893934806408000
v -2.887621744435000 -1.072760229176000 -3.889555249315000
v -2.985602567465000 -1.471331854315000 -3.925369864695000
v -2.582680017386000 -1.547651168447000 -4.334982077467000
v -2.485099998033000 0.015848894779000 -3.917846511027000
v -2.002031581150000 0.822544445494000 -3.902888711098000
v -2.099981846966000 0.680295245473000 -3.895682081281000
v -2.199053762180000 0.529178873348000 -3.891869000230000
v -1.896533343989000 0.967887695764000 -3.914428972620000
v -1.908336433816000 0.952278611715000 -3.912824813476000
v -1.627274381178000 1.306993091492000 -3.959177509126000
v -1.713806411531000 1.201351829158000 -3.943193888656000
v -2.435241807164000 0.112808763328000 -3.909723615174000
v -2.359167408589000 0.255542296056000 -3.899831289859000
v -2.301257231156000 0.359690928639000 -3.894464190038000
v -2.320764034819000 0.325036160819000 -3.896066885444000
v -2.490332618647000 0.004416765047000 -3.919302275878000
v -2.475664903214000 -0.012939744336000 -3.938946366935000
v -1.263044416847000 1.697071186631000 -3.928894082360000
v -1.272803359470000 1.687515084862000 -3.929613767399000
v -1.538274960820000 1.409726337751000 -3.961745437493000
v -1.426118406301000 1.530210979124000 -3.945971202503000
v -1.103996266417000 1.848507299662000 -3.920196039547000
v -1.040386672114000 1.906354382225000 -3.918630676278000
v -0.993369522284000 1.945937840174000 -3.919708054405000
v -0.854875421984000 2.057208047045000 -3.926631394254000
v -0.742832235727000 2.143001056696000 -3.935206981584000
v -0.747081695872000 2.139890439056000 -3.934780899326000
v -0.619174550606000 2.230528264700000 -3.949710905074000
v -0.610835910281000 2.215842143724000 -3.965181199765000
v -1.578997190860000 1.363303493076000 -3.969357033965000
v 1.244518206006000 1.787295039614000 -4.621627953573000
v 2.164925568159000 1.183382537653000 -4.621078923069000
v 2.057956941427000 2.009999714487000 -4.358677834453000
v 2.065559283382000 1.998985655711000 -4.360764149366000
v 2.175449678456000 1.167890050549000 -4.621059802233000
v 2.377632514402000 0.044635636819000 -4.619457659534000
v 2.896717894577000 0.774748163957000 -4.359523874566000
v 2.899400022442000 0.767623372707000 -4.358952173768000
v 2.899979916190000 0.770693493014000 -4.358502202907000
v 2.370138525749000 0.007419802128000 -4.619399115557000
v 2.553268920979000 -0.812370650439000 -4.375923654998000
v -0.592166092501000 -1.737748502020000 -4.615649101111000
v 0.668146157309000 -2.047295912873000 -4.362423598255000
v 0.665332968981000 -2.047695258279000 -4.362600139169000
v 1.549796095204000 -1.051447472618000 -4.617499790174000
v 1.551098274942000 -1.053338908472000 -4.616677872581000
v -0.676652984616000 -1.743105113814000 -4.615608578129000
v -2.068471696109000 -2.231382003286000 -4.354545946377000
v -1.552027446539000 -0.382680177058000 -4.617306381799000
v -2.576297045827000 -1.541827847408000 -4.339187960293000
v -2.574893450177000 -1.538196301154000 -4.339349559303000
v -1.877838294852000 -1.557269212862000 -4.615424284242000
v -1.889335221044000 -1.565338400354000 -4.611771596510000
v -1.506932355758000 -0.291723420110000 -4.617459770351000
v -0.154820448662000 1.410821240643000 -4.620526414495000
v -1.218664184855000 1.101291626674000 -4.373002671022000
v -1.208403950647000 1.113736465343000 -4.373138875683000
v -1.214279280186000 1.109781817950000 -4.372306142198000
v 1.222895989261000 1.791721573082000 -4.621626253422000
v -0.142143419660000 1.419434297215000 -4.620544174505000
v 0.513156340936000 2.275483357436000 -4.380201588754000
v 0.548342620408000 2.289091898904000 -4.378802725496000
v 0.536722093065000 2.291496225670000 -4.376811512451000

# 236 faces

f 240 213 214 209 208 207 210 241
f 213 219 220 212 211 214
f 218 217 215 216 220 219 224 225
f 224 229 230 223 222 221 225
f 229 235 236 228 226 227 230
f 243 234 232 233 231 236 235 242
f 241 239 237 238 243 242 240
f 436 464 467 277 289 438
f 440 437 439 301 442
f 445 441 443 327 325 446
f 451 446 325 341 353 366 448
f 452 447 449 379 377 453
f 388 244 398 408 455 458 453 377 390
f 459 454 456 422 461
f 465 460 462 434 466
f 207 44 45 42 47 48 43 46 50 49 51 206 210
f 72 55 56 58 59 57 54 61 60 53 52 208 209
f 211 66 67 68 69 65 62 71 70 64 63 72 209 214
f 92 77 74 78 79 76 75 81 80 73 212 220 216
f 215 85 86 82 88 87 90 91 83 84 89 92 216
f 95 94 217 218 114 97 98 93 102 101 96 100 99
f 221 105 111 110 104 109 108 106 107 103 113 112 114 218 225
f 116 119 222 223 135 120 115 122 121 123 124 118 117
f 131 132 135 223 230 227 128 127 126 129 130 125 133 134
f 139 138 228 236 231 162 155 140 141 142 143 137 144 145 136
f 154 153 146 148 147 151 152 150 149 155 162 161
f 157 158 161 162 231 233 174 160 159 156
f 169 164 174 233 232 170 171 165 167 166 163 173 172 168
f 182 181 184 185 183 234 243 238 196 179 180 177 178 175 176
f 190 189 196 238 237 194 195 191 186 187 192 193 188
f 241 210 206 201 204 205 198 197 200 199 203 202 239
f 249 250 252 251 246 256 255 253 254 245 248 247 266 468 466 434 433
f 262 257 260 259 258 276 277 467 468 266 264 265 261 263
f 289 277 276 275 274 271 270 268 269 272 273 267 288
f 286 287 284 285 278 279 283 282 281 280 300 301 439 438 289 288
f 297 293 294 295 298 299 292 314 444 442 301 300 290 291 296
f 308 302 306 305 326 327 443 444 314 309 310 304 303 311 313 312 307
f 316 317 321 322 318 323 324 315 320 319 340 341 325 327 326
f 341 340 338 339 334 335 331 332 333 328 336 337 330 329 352 353
f 353 352 345 346 347 351 350 343 344 342 349 348 365 366
f 361 362 364 363 354 360 359 355 356 358 357 378 379 449 448 366 365
f 370 367 376 375 368 374 373 372 371 389 390 377 379 378 369
f 386 385 381 382 380 387 388 390 389 383 384
f 408 398 393 397 396 391 392 394 395 407
f 408 407 404 403 405 406 399 401 402 400 421 422 456 455
f 461 422 421 409 417 418 420 419 412 411 410 414 413 416 415 435 463
f 434 462 463 435 425 426 424 423 427 428 429 430 432 431 433
f 438 439 437 436
f 444 443 441 440 442
f 446 451 450 445
f 451 448 449 447 450
f 453 458 457 452
f 458 455 456 454 457
f 463 462 460 459 461
f 468 467 464 465 466
f 464 436 437 440 441 445 450 447 452 457 454 459 460 465
f 219 213 240 242 235 229 224
f 247 51 49 264 266
f 319 97 114 112 338 340
f 371 140 155 149 383 389
f 156 391 396 157
f 267 55 72 63 7 286 288
f 280 66 211 212 73 290 300
f 305 85 215 217 94 316 326
f 138 369 378 357 226 228
f 189 425 435 415 179 196
f 409 4 170 232 234 183 417
f 292 74 77 309 314
f 329 119 116 345 352
f 431 194 237 239 202 249 433
f 259 44 207 208 52 258
f 9 405 403 168 172
f 348 35 361 365
f 380 146 153 387
f 108 332 331 106
f 255 40 197 198 21 253
f 121 11 343 350 123
f 101 323 318 96
f 42 257 262 47
f 375 144 137 368
f 270 1 54 57 268
f 87 307 312 90
f 411 176 175 410
f 359 129 126 355
f 399 163 166 401
f 278 62 65 279
f 293 75 76 294
f 423 19 29 427
f 147 381 385 151
f 392 33 34 394
f 302 82 86 306
f 328 104 110 336
f 269 5 58 56 15 272
f 251 13 3 246
f 39 53 60 16 271 274
f 363 133 125 354
f 163 399 406 10 173
f 6 412 419 184 181
f 191 32 31 186
f 291 36 37 296
f 98 320 315 93
f 115 342 344 12 122
f 304 84 83 303
f 413 177 180 416
f 370 139 136 367
f 43 2 46
f 254 20 245
f 99 321 317 95
f 339 113 103 23 334
f 356 127 128 358
f 141 372 373 142
f 400 165 171 4 409 421
f 282 68 67 281
f 8 64 70 284 287
f 118 347 346 117
f 295 22 298
f 257 42 45 260
f 426 190 188 424
f 146 380 382 148
f 250 203 199 14 252
f 33 392 391 156 159
f 337 111 105 330
f 26 397 393 25
f 82 302 308 88
f 395 164 169 404 407
f 93 315 324 102
f 2 43 48 263 261
f 245 20 204 201 248
f 354 125 130 360
f 107 24 23 103
f 53 39 275 276 258 52
f 362 131 134 364
f 187 18 192
f 367 136 145 376
f 197 40 256 246 3 200
f 342 115 120 349
f 54 1 17 61
f 55 267 273 15 56
f 28 311 303 83 91
f 36 291 290 73 80
f 95 317 316 94
f 152 386 384 150
f 59 5 269 268 57
f 299 78 74 292
f 104 328 333 109
f 84 304 310 89
f 418 41 420
f 75 293 297 38 81
f 148 382 381 147
f 410 175 178 414
f 25 393 398 244 27
f 18 187 186 31 429 428 30
f 306 86 85 305
f 127 356 355 126
f 62 278 285 71
f 143 374 368 137
f 96 318 322 100
f 139 370 369 138
f 7 63 64 8
f 44 259 260 45
f 164 395 394 34 160 174
f 279 65 69 283
f 343 11 12 344
f 165 400 402 167
f 412 6 182 176 411
f 271 16 17 1 270
f 117 346 345 116
f 19 423 424 188 193
f 226 357 358 128 227
f 157 396 397 26 158
f 124 351 347 118
f 425 189 190 426
f 330 105 221 222 119 329
f 372 141 140 371
f 177 413 414 178
f 2 261 265 50 46
f 294 76 79 22 295
f 179 415 416 180
f 320 98 97 319
f 32 191 195 432 430
f 21 198 205
f 47 262 263 48
f 66 280 281 67
f 35 348 349 120 135 132
f 106 331 335 24 107
f 129 359 360 130
f 167 402 401 166
f 307 87 88 308
f 50 265 264 49
f 3 13 14 199 200
f 150 384 383 149
f 332 108 109 333
f 89 310 309 77 92
f 51 247 248 201 206
f 168 403 404 169
f 151 385 386 152
f 296 37 38 297
f 170 4 171
f 100 322 321 99
f 283 69 68 282
f 58 5 59
f 311 28 313
f 71 285 284 70
f 6 181 182
f 405 9 10 406
f 249 202 203 250
f 286 7 8 287
f 173 10 9 172
f 11 121 122 12
f 14 13 251 252
f 15 273 272
f 17 16 60 61
f 417 183 185 41 418
f 192 18 30 29 19 193
f 27 244 388 387 153 154
f 204 20 254 253 21 205
f 22 79 78 299 298
f 24 335 334 23
f 27 154 161 158 26 25
f 28 91 90 312 313
f 30 428 427 29
f 31 32 430 429
f 160 34 33 159
f 374 143 142 373
f 131 362 361 35 132
f 336 110 111 337
f 113 339 338 112
f 36 80 81 38 37
f 275 39 274
f 133 363 364 134
f 123 350 351 124
f 40 255 256
f 184 419 420 41 185
f 194 431 432 195
f 376 145 144 375
f 102 324 323 101

