
# 596 vertices

v 2.350010302698000 0.476492269840000 -3.866298222721000
v -1.533887116313000 2.248147800091000 -2.864533267596000
v 0.546252610346000 2.576602641675000 -2.904174175706000
v 0.008815000173000 2.322034198676000 -2.623047010710000
v -0.229866745034000 0.397748803403000 -1.502989247852000
v -0.231002767851000 0.403530698623000 -1.505424974107000
v -0.230729918441000 0.404673397190000 -1.506104755599000
v 1.938485873003000 -0.861075864382000 -2.984679069096000
v 0.097175627202000 0.139271563984000 -1.536649147444000
v 0.103021160996000 0.140697122333000 -1.539996061351000
v -0.130926168204000 -0.252272599773000 -1.521210340530000
v 1.490334822654000 -1.309780800112000 -2.815990120444000
v 1.228994262049000 -2.059442941076000 -2.940740085991000
v 1.233343459496000 -2.059711807305000 -2.942610390113000
v 1.238587725719000 -2.055910984686000 -2.942861535272000
v 0.581839599383000 -1.933165057928000 -2.620528152101000
v 0.131901250032000 -1.919164431975000 -2.500538442989000
v -0.766980553378000 -2.321296383158000 -2.859044068063000
v -0.124588541343000 -0.294131369225000 -1.541661017838000
v -0.293679455080000 -2.078480139431000 -2.627052113526000
v -0.123477933644000 -0.306298143314000 -1.548638152174000
v -0.795907060586000 -2.334209561899000 -2.872456610281000
v -0.129039962080000 -0.268247970742000 -1.528028185803000
v -0.127601028834000 -0.275876488310000 -1.531587209284000
v -0.793246671448000 -2.332633838370000 -2.870656144223000
v -0.127465073680000 -0.278000814899000 -1.532673658082000
v -1.789425688814000 -1.556838108984000 -2.918144359510000
v -1.792324174126000 -1.606213829045000 -2.936589201555000
v -1.789540201377000 -1.608908951292000 -2.935686456433000
v -1.701838219381000 -0.737657995000000 -2.586494696091000
v -2.268930407220000 1.138814685513000 -2.969954362141000
v -0.496456576850000 0.031937693447000 -1.547124014465000
v -0.481745335148000 0.036915753631000 -1.538215499529000
v -0.490326460645000 0.034620676940000 -1.543120252594000
v -0.232832258974000 0.408344388750000 -1.507965439325000
v -1.512786511380000 2.241296525589000 -2.848681211537000
v -0.245309095013000 0.445604619196000 -1.527812553445000
v -0.466600181035000 2.163996034558000 -2.481550868958000
v -0.931845023801000 2.160698639165000 -2.584681728318000
v -0.247839479299000 0.457176594338000 -1.534122368809000
v 1.965440767209000 -1.260380674249000 -4.362657073294000
v 0.284778787121000 -2.836010892588000 -3.989822169772000
v -2.628843775991000 -0.211632181201000 -3.979793820371000
v -2.240730323120000 1.402255643735000 -4.358004533038000
v -0.507984788475000 2.985888445920000 -3.964363506964000
v 0.713820173077000 2.570190167897000 -4.352790705426000
v 2.351654872065000 0.409573158023000 -3.988627571438000
v 0.714427313456000 2.565871591814000 -4.355571528441000
v 1.959942439644000 -1.263426614053000 -4.366254959594000
v 1.337197172116000 0.247675636712000 -4.619115037978000
v -1.030996979620000 -2.420093716038000 -4.385382852526000
v -1.061474481413000 -2.427583273303000 -4.381836046795000
v -1.774960244335000 -1.810133288316000 -4.373331390508000
v -1.646312913875000 2.205593447316000 -4.337274032538000
v -1.653636561776000 2.204698093776000 -4.336547421587000
v -0.355376561758000 1.967219374266000 -4.621281389965000
v 1.336595487535000 0.247533897674000 -4.619360511251000
v 0.130395577775000 -1.874489706951000 -4.615722640958000
v 1.345717177489000 -1.427590882143000 -4.616858696023000
v 0.098349625727000 -1.879565261042000 -4.615702718252000
v -1.611165384353000 -0.134457866174000 -4.617654867370000
v -1.164524727299000 -1.800027622525000 -4.615335705420000
v -1.618121432044000 -0.082921309037000 -4.617729268941000
v -0.411249915834000 1.958060211185000 -4.621246190712000
v -0.175965322415000 0.090731032905000 -1.388465678801000
v -0.184445667484000 0.074314103285000 -1.388465678801000
v -0.188387927627000 0.103364817576000 -1.388465678801000
v -0.197417656294000 0.086319572629000 -1.388465678801000
v -1.122070624569000 -2.969852669696000 -3.983358724607000
v 0.836869573725000 3.078634525968000 -3.967245171832000
v -2.536260973090000 2.136695273576000 -3.951439413560000
v 2.443989568238000 -1.267291308588000 -3.982181613902000
v -2.736818700899000 1.415049491160000 -3.716288638977000
v -2.748720849969000 1.423459505283000 -3.963216065979000
v -1.864295607159000 2.665023849203000 -3.696792599647000
v -1.882177282097000 2.666738275621000 -3.942564338140000
v -1.790736941765000 -2.695119862076000 -3.980103004497000
v 2.006765250317000 1.977838817748000 -3.729688823694000
v 1.998857804104000 2.035552427869000 -3.969076785985000
v 1.570541024669000 -2.534499626263000 -3.778306845983000
v 1.629675627637000 -2.515244637571000 -3.992243289254000
v -2.244423158687000 -2.052456714829000 -3.963438827324000
v 0.315877139294000 -2.846164075110000 -3.830982140579000
v 0.283459196984000 -2.859468019332000 -3.972499174869000
v -0.499547307124000 2.999577506554000 -3.822978367388000
v -0.494880053275000 3.000320665984000 -3.823077204236000
v -0.509731580005000 3.003067060016000 -3.951010366253000
v 2.352017555421000 0.475064784218000 -3.869305149079000
v 2.366167605912000 0.409829184480000 -3.977070454963000
v -2.650948786961000 -0.210770931946000 -3.962611867110000
v -1.592298262778000 -2.816427865310000 -3.836331618723000
v 2.028971784341000 -2.236764950427000 -3.839594843297000
v 2.409057480282000 -1.480168701914000 -3.816200979263000
v 2.422597691969000 -1.442431292613000 -3.955760383093000
v 2.246911905741000 1.096234860710000 -3.945280212207000
v 1.813140998135000 2.426994199928000 -3.917989056113000
v 1.858517469613000 2.336188250825000 -3.825167363531000
v 1.863122428894000 2.339992613434000 -3.923146224794000
v -1.763828647792000 -2.701629186643000 -3.793992373825000
v 2.437443918169000 -0.434261113719000 -3.859263197597000
v 2.401943472100000 0.047155700812000 -3.880274619573000
v -2.664153543093000 -0.062432936462000 -3.873118726319000
v -2.712153945319000 0.317259499487000 -3.939733990766000
v -2.578251891486000 2.045773711079000 -3.754953098486000
v 1.546275506623000 2.753105590860000 -3.754391147460000
v 1.566793087371000 2.743541443850000 -3.945147231837000
v 1.602747313654000 2.696532312265000 -3.782344831220000
v 2.368658127824000 -1.652411225721000 -3.946476229926000
v 2.408191516541000 -1.508454658894000 -3.950819832034000
v 0.966324630922000 3.053468749949000 -3.789331484870000
v 0.940837876397000 3.065344115190000 -3.945284361124000
v 0.992563635289000 -2.710561113961000 -3.958643148739000
v -2.366881119667000 -1.632631010398000 -3.831193432509000
v -2.368104127917000 -1.629198577870000 -3.834027076772000
v 2.213846631981000 -2.016049428921000 -3.978995622246000
v 2.208835946842000 -2.024650816876000 -3.976561476161000
v 2.242218591805000 -1.952200236295000 -3.791627112181000
v 2.242860912345000 -1.964415229650000 -3.968812289382000
v -1.022080858350000 2.902944615158000 -3.829185659126000
v -1.098648806355000 2.890856514787000 -3.923054391168000
v -2.746975047406000 0.840302648652000 -3.842898572035000
v -2.752620685284000 0.803383231876000 -3.931044913577000
v -2.738452755731000 0.601242028597000 -3.932586311127000
v 1.254909379105000 -2.641145525056000 -3.964238104679000
v 1.149116802768000 -2.665544155671000 -3.836108606908000
v 1.145254234053000 -2.667361067189000 -3.853251278142000
v 1.082085532347000 3.020487282575000 -3.814886634112000
v 1.088279855677000 3.020966193890000 -3.931653089992000
v 1.169405200504000 2.990234950566000 -3.928483742267000
v 1.242828885734000 2.957613181990000 -3.827423602083000
v 1.721088249322000 2.564823157289000 -3.918983873417000
v 0.290090804848000 -2.850365404337000 -3.831064991255000
v 0.295297666571000 -2.849599544650000 -3.831162990525000
v 0.215526523201000 -2.870565453702000 -3.968747225669000
v -2.485455554957000 -1.150913581065000 -3.930082165620000
v -2.478530971600000 -1.140299548899000 -3.864291867956000
v 0.175682642440000 3.081722073676000 -3.928258735377000
v -0.859950328693000 2.936705762126000 -3.833807116866000
v -0.840234795557000 2.944723112050000 -3.931813349108000
v -2.415040891277000 -1.468110370666000 -3.930536661324000
v -2.388296694913000 -1.555061017465000 -3.858797755873000
v -2.481775639571000 -1.169223607727000 -3.929806763170000
v -2.469006918225000 -1.212621215136000 -3.899689491059000
v -2.661904722265000 1.834882237890000 -3.784413071575000
v -2.669153103440000 1.832471763406000 -3.924044777532000
v -2.682611840696000 1.758759446622000 -3.781918357431000
v -0.487236342491000 -2.953845002687000 -3.953330252481000
v -0.306968610141000 -2.929804466468000 -3.834605097400000
v -0.225402864380000 -2.927137119478000 -3.955867782927000
v -2.738721843162000 1.502752834512000 -3.951460407138000
v 2.320176770446000 -1.785177240367000 -3.824299149254000
v 2.329640097973000 -1.772647132442000 -3.947596331653000
v 2.299360204518000 -1.847874257731000 -3.952941394860000
v -0.845677696976000 -2.962204139207000 -3.780426717690000
v 1.685607378990000 -2.484117594754000 -3.821438107614000
v 1.710029214517000 -2.474983098988000 -3.973668071319000
v -2.167062634292000 2.498143784990000 -3.786552095846000
v -2.015236370183000 2.596555171809000 -3.759595339704000
v 1.840319015348000 -2.390354239156000 -3.849775453836000
v 1.754342998221000 -2.445414126772000 -3.837394075562000
v 2.364842648206000 0.386971233250000 -3.875673280171000
v 2.368845707484000 0.390579945376000 -3.975708987399000
v 2.388890714624000 0.186085257448000 -3.881807149038000
v 2.395714660603000 0.159029018038000 -3.963585393324000
v 2.451760767739000 -0.718248817735000 -3.836178059382000
v 2.455401683913000 -0.667756259591000 -3.949140153430000
v 2.464333973598000 -0.892710744824000 -3.951024012838000
v -1.084158332705000 -2.972573890609000 -3.978836171995000
v -0.998342166763000 -2.961475632438000 -3.750596684990000
v -0.948994215748000 -2.975136901002000 -3.968010822392000
v -1.458650295494000 -2.881031184526000 -3.946990687016000
v 2.347066678603000 0.510543417760000 -3.871486312687000
v 2.336756281119000 0.612071680978000 -3.963162389045000
v 2.306719559171000 0.768645435426000 -3.879942358106000
v 2.319874233024000 0.716352083752000 -3.957352818109000
v 2.455625685394000 -0.983243373805000 -3.799315758863000
v 2.462620802381000 -1.021692986871000 -3.957542095158000
v -1.752874624854000 -2.725572784527000 -3.969829147782000
v -1.664338597303000 -2.773829979835000 -3.824969094573000
v -1.667834820149000 -2.780502674422000 -3.956209215613000
v -1.693174445051000 -2.754390973025000 -3.817691120893000
v -1.749664172210000 -2.725386709041000 -3.936249058878000
v -2.251976058513000 -2.032907613633000 -3.960891637302000
v -2.754867546355000 1.056887483925000 -3.815197296317000
v -2.764607278459000 1.124215837221000 -3.936779451093000
v -2.143992385058000 -2.248140044776000 -3.830620709215000
v -2.153694021761000 -2.230009451387000 -3.826828217154000
v -2.184213100530000 -2.189302608717000 -3.943001450972000
v 1.512525028796000 2.783932130388000 -3.756820639415000
v 1.450154831484000 2.842922398103000 -3.945612770940000
v 0.724488446064000 3.087808002755000 -3.953944651937000
v 0.583630110172000 3.095049426187000 -3.940558543229000
v -1.768705379920000 -2.697399485498000 -3.791684564411000
v -1.830623721292000 -2.639102939797000 -3.798556517759000
v 2.447642400490000 -0.526229723530000 -3.949657360547000
v 2.423613698205000 -0.141728779323000 -3.953408207598000
v 2.436271197640000 -0.396864517095000 -3.874841787536000
v 2.423034546599000 -0.148207736646000 -3.930567660556000
v -2.637823916993000 1.906506140619000 -3.780398807020000
v -0.402842833704000 3.015210449134000 -3.830918822404000
v -0.392618494553000 3.021313189938000 -3.943413618679000
v -0.230978455170000 3.038594092334000 -3.838039687270000
v -0.196717996946000 3.047240707345000 -3.934251011567000
v 1.952224611811000 -2.304906524682000 -3.850185106899000
v -1.508183299526000 2.789861089954000 -3.921015871146000
v -1.635427555265000 2.745940265576000 -3.760952658668000
v 2.116440460496000 1.619044564651000 -3.809655080299000
v 2.144378219500000 1.540275337600000 -3.944848696310000
v 2.084178869242000 1.733365143207000 -3.788769164423000
v 2.081430399309000 1.771639700468000 -3.952176756986000
v 0.361442159780000 3.092028116279000 -3.930589535320000
v -1.861603677669000 2.666152895307000 -3.697854527965000
v -1.853172894565000 2.678367880951000 -3.939316161658000
v -1.807496626774000 2.686274654043000 -3.714742153969000
v 1.983043455573000 2.049306266087000 -3.756334721239000
v 1.923909347046000 2.198057939856000 -3.799095976960000
v -1.939105359063000 2.636080188692000 -3.734037585668000
v -1.950577866454000 2.638459938469000 -3.926835381774000
v -1.988325666133000 2.612271461453000 -3.752700451169000
v -1.963466270679000 2.631926375877000 -3.924611046056000
v -2.736958632898000 1.414055999947000 -3.716716432643000
v -2.750898617375000 1.403905431059000 -3.960600628851000
v -2.762071128188000 1.251069440077000 -3.944715308545000
v -2.743777301766000 1.344447563482000 -3.741592103544000
v -2.759572774983000 1.253579094911000 -3.902014351321000
v -2.660066194349000 -0.140758883564000 -3.958797668356000
v -2.699872511186000 0.202559050680000 -3.943913768645000
v -2.666439879328000 -0.053103065944000 -3.886878970606000
v 1.349675501979000 2.904733996043000 -3.820858317396000
v 1.361190224495000 2.902992419244000 -3.931000585060000
v 1.317295898023000 2.921677985827000 -3.824083016474000
v 1.297096020791000 2.936148694523000 -3.927415695201000
v 1.290052492047000 2.938692453302000 -3.898448724875000
v 2.077460357857000 -2.187981365863000 -3.826371954980000
v 2.074078629988000 -2.194068046447000 -3.947612457485000
v 2.126078364810000 -2.132448892804000 -3.805571346938000
v 2.126729015258000 -2.134485513118000 -3.955024473376000
v 1.634139346617000 2.673133988455000 -3.930168751478000
v 1.630724429254000 2.672394984993000 -3.860117575041000
v 1.679582618093000 2.619439162842000 -3.922958758508000
v -2.711489511600000 0.367014079407000 -3.872292619872000
v -2.712941230002000 0.374647095406000 -3.878963225032000
v -2.737706392950000 0.693370321344000 -3.855008099741000
v -2.736575577107000 0.591790488138000 -3.919694945782000
v 0.458757067428000 -2.823104169446000 -3.843899492391000
v 0.372662664732000 -2.844371054132000 -3.968035458021000
v 0.574972772345000 -2.801155261013000 -3.849548799657000
v 0.530096879351000 -2.814136335037000 -3.962844569947000
v -2.392091053260000 2.311828689518000 -3.776911743582000
v -2.397412134223000 2.313293901937000 -3.910241423854000
v -2.416153149707000 2.284395195654000 -3.766673182125000
v -2.445950195390000 2.259627322402000 -3.919693546959000
v -0.417984743699000 -2.940962212988000 -3.829985608865000
v -0.483256856313000 -2.951704191638000 -3.916393807482000
v -2.697852903866000 1.685500131369000 -3.773031912306000
v 1.812809494926000 2.416996218313000 -3.830721864109000
v 1.809726406340000 2.431168780063000 -3.903043279717000
v -2.627068517705000 -0.320759631889000 -3.861771143355000
v -2.631638507626000 -0.287273683952000 -3.860350188143000
v -2.660232041255000 -0.090912836883000 -3.871837859179000
v 1.679059970526000 2.611834061060000 -3.813481959835000
v 1.679782174361000 2.613281665512000 -3.835363003486000
v 1.684301331340000 2.609284823759000 -3.854503425279000
v -2.220410983623000 -2.079043205521000 -3.779878039995000
v -2.235654791214000 -2.073925289539000 -3.959786114031000
v -2.200719847907000 -2.128606300803000 -3.797710064957000
v -2.194184596299000 -2.169355521196000 -3.945192875336000
v -1.930166066238000 -2.546811599664000 -3.953368614321000
v 0.781020321754000 3.071611487661000 -3.701856630485000
v 0.629200484775000 3.085043798847000 -3.753571718517000
v 0.715086439063000 3.085460908561000 -3.878829542947000
v 0.630316371430000 3.086416530334000 -3.781555304136000
v -2.511172717134000 2.174061798063000 -3.940647346646000
v -2.476507649766000 2.207510159080000 -3.731093905953000
v -2.470295060375000 2.230209532325000 -3.925968535243000
v -2.309827784382000 2.395228645992000 -3.902329066739000
v 2.016271747804000 1.952020587182000 -3.738206378856000
v 2.014172416210000 1.991353418392000 -3.965068140584000
v 2.034490793077000 1.898121094645000 -3.753202909537000
v 2.052050052585000 1.873567353665000 -3.956712682710000
v -2.363547607441000 2.340765309494000 -3.784636399963000
v -2.383179886837000 2.327434889367000 -3.908448447907000
v -2.349294887122000 2.354260332657000 -3.787324047270000
v -2.319568931635000 2.386932833216000 -3.902707857972000
v 1.378592331212000 2.887025760492000 -3.814516342524000
v 1.437844175215000 2.845566719072000 -3.794568172441000
v 1.436173330112000 2.847718091611000 -3.811575464225000
v -1.581663807019000 -2.829929753285000 -3.946784368912000
v -1.578933513526000 -2.828450041094000 -3.900558079055000
v -1.529967234581000 -2.852735332115000 -3.945937240447000
v 2.166321137820000 -2.079512992270000 -3.780411427885000
v 2.191724898540000 -2.050389784779000 -3.970392499595000
v 2.143319547949000 -2.111095546585000 -3.796303104780000
v 2.154785379087000 -2.100127779762000 -3.960512069569000
v -1.075981519653000 -2.957133101982000 -3.729624074025000
v -1.050007948378000 -2.959535504763000 -3.738027483326000
v -1.083380916824000 -2.968233489847000 -3.903014163929000
v -1.173213394938000 -2.953335439891000 -3.775666213817000
v -1.336622241309000 2.835289282413000 -3.919505900596000
v -1.256145973884000 2.849864851818000 -3.814993649916000
v -1.248807645385000 2.857118391087000 -3.919811816678000
v -2.031649650810000 -2.423051645133000 -3.940857018155000
v -2.031818054752000 -2.422832773780000 -3.940842187467000
v 1.563266632018000 -2.537492374499000 -3.780416420291000
v 1.541359051076000 -2.550775327646000 -3.981256936421000
v 1.483644830433000 -2.566630388379000 -3.798000175630000
v 1.501236355532000 -2.565122382681000 -3.977609017979000
v -0.640146976511000 -2.963610995854000 -3.956176457138000
v -0.853800055611000 -2.974035950241000 -3.962543576239000
v -0.692676346046000 -2.957663552332000 -3.802623356186000
v -0.839216481782000 -2.970123730840000 -3.903772316713000
v -0.655135986530000 -2.956160850518000 -3.807501828818000
v -0.618180733002000 -2.957420576618000 -3.862227074225000
v 0.978713774447000 3.051083868334000 -3.793605073912000
v 0.971644771510000 3.058765654997000 -3.940588292679000
v 1.025589628612000 3.039138710938000 -3.805848459710000
v 0.991321209897000 3.053459954277000 -3.938346200582000
v 1.918182113774000 2.211317751614000 -3.802314422091000
v 1.871933072169000 2.322280316556000 -3.925167973182000
v 1.919972906037000 2.207429699382000 -3.801515721955000
v 1.927834289622000 2.205042738898000 -3.940270428465000
v -1.802501020090000 -2.685104012986000 -3.976750220131000
v -1.800716564151000 -2.683395076527000 -3.939115296945000
v -1.829799694906000 -2.641367728508000 -3.811742884640000
v -1.878089136712000 -2.605694738947000 -3.961820829044000
v -1.884101374531000 -2.592366097848000 -3.886298814775000
v -2.315808076678000 -1.842886596157000 -3.943646141762000
v -2.314956983520000 -1.843500339438000 -3.934635343464000
v -1.612662052688000 2.759631561296000 -3.923878637850000
v -1.637828103106000 2.746067947062000 -3.779947324230000
v -1.747777574091000 2.715997196968000 -3.931021667607000
v -1.746623468342000 2.713811160993000 -3.862591234776000
v -2.153947754548000 2.512074484778000 -3.906025716704000
v -2.031950934724000 2.591190505841000 -3.916484167103000
v -2.147421353005000 2.515050233709000 -3.868342585957000
v -2.021856055107000 2.593260119333000 -3.781107753404000
v -2.635189835603000 1.934420902483000 -3.925118162252000
v -2.604373257020000 1.990721848817000 -3.768571664074000
v -2.602651466402000 2.013617541576000 -3.930672349244000
v -2.607464943975000 1.983406367311000 -3.769856356212000
v -2.634486894179000 1.934033342641000 -3.907085279076000
v 0.725139828389000 -2.768863800362000 -3.850868282700000
v 0.791018350428000 -2.757844916618000 -3.958868593052000
v 0.887909875493000 -2.731021922020000 -3.847976870490000
v 0.958709591864000 -2.718955475785000 -3.958342732419000
v -1.368429347464000 -2.912944308391000 -3.951049537900000
v -1.276060093059000 -2.939439023331000 -3.959542554775000
v -1.901440174458000 -2.567009522003000 -3.818711401812000
v -1.930556487887000 -2.541838261182000 -3.901574377779000
v -1.901634367202000 -2.567170507865000 -3.822142641783000
v -1.996217448262000 -2.456024890555000 -3.834174107114000
v -1.997226247989000 -2.457189691591000 -3.854874260158000
v -1.580740571223000 2.762267889115000 -3.771072324953000
v -1.507281816039000 2.789834012039000 -3.914363219373000
v -1.394695693634000 2.814675155496000 -3.800059108984000
v -1.395161745741000 2.816448370679000 -3.836518524845000
v -2.106670432842000 -2.307881950923000 -3.837265590861000
v -2.141424665554000 -2.266411081641000 -3.937325825087000
v -2.140032785021000 -2.264941721161000 -3.905933554992000
v -2.209764425898000 2.468859399838000 -3.792165297327000
v -2.221028412589000 2.465553387093000 -3.902127056641000
v -2.257405638734000 2.433211842623000 -3.794779782257000
v -2.252080994929000 2.442205984904000 -3.901434059780000
v -2.260966412016000 2.431596086658000 -3.817359226265000
v 0.464554090250000 3.089567565018000 -3.792566138384000
v 0.556505143804000 3.095387956164000 -3.938795646028000
v 0.459358832962000 3.089609727810000 -3.793625421870000
v 0.438361133020000 3.095135379994000 -3.932450009086000
v -2.697188881636000 1.730586509082000 -3.927501725113000
v -2.695986605422000 1.731569850022000 -3.907724169503000
v -2.722636677039000 1.605498747972000 -3.938627319089000
v -2.701354902675000 1.680461941327000 -3.813466840387000
v -2.719285774495000 1.603724819331000 -3.865861915549000
v -2.535690535602000 2.117306788410000 -3.725330139057000
v -2.494921761994000 2.180663339736000 -3.716083803139000
v -2.505565918272000 2.171433750736000 -3.794912671354000
v 1.997376598736000 2.039643638728000 -3.968215417259000
v 1.960000668483000 2.131996411073000 -3.951576725683000
v 1.983435969460000 2.051780286528000 -3.780763810558000
v 1.959428809657000 2.131826168462000 -3.938459518474000
v -2.761115782326000 0.980495989701000 -3.932747424839000
v -2.764490399137000 1.113370931493000 -3.936360993363000
v -2.755730487769000 1.054506463593000 -3.826834777077000
v 1.885505590181000 -2.357568832010000 -3.851898292093000
v 1.898595605066000 -2.350076156991000 -3.948022692059000
v 1.951835426787000 -2.305229033957000 -3.850212558197000
v 1.928500253056000 -2.326447879973000 -3.946208336403000
v -1.158948071376000 -2.966460656568000 -3.974923201995000
v -1.192521899733000 -2.961346630164000 -3.968665646772000
v -1.192949962284000 -2.960509059242000 -3.954191386759000
v -1.169117756333000 -2.957113185351000 -3.827690261969000
v -1.172494441915000 -2.955664463110000 -3.809647048761000
v -2.642119894212000 -0.274247342628000 -3.958577135378000
v -2.603068279031000 -0.496129412395000 -3.874330257729000
v -2.612864256476000 -0.464396481543000 -3.948692187191000
v -2.609924809336000 -0.449330764779000 -3.871676514511000
v -2.640284673711000 -0.280476813288000 -3.945278771718000
v 1.597840920126000 -2.523695448023000 -3.789849406691000
v 1.630423410024000 -2.514937089952000 -3.992030829527000
v 1.657958215392000 -2.497759471718000 -3.812824107500000
v 1.633896397669000 -2.513376322721000 -3.991122176564000
v 1.419789437730000 -2.587623992652000 -3.808489005914000
v 1.387867957138000 -2.601784494786000 -3.970202689205000
v 1.392972606927000 -2.595739158003000 -3.811826787840000
v 1.268158967055000 -2.637427489367000 -3.964679529714000
v -2.750872291250000 1.259835588677000 -3.769791987322000
v -2.756573961826000 1.245488182617000 -3.846179013921000
v -2.754057702223000 1.164552632882000 -3.793345573679000
v -2.761973383535000 1.146187413946000 -3.899734770248000
v 2.165911556241000 1.426586010848000 -3.836530148874000
v 2.184468544311000 1.378385736015000 -3.942858089567000
v 2.201989847750000 1.275874506069000 -3.853019646686000
v 2.206025980402000 1.285387885306000 -3.942882447384000
v 2.437450703590000 -1.335953043696000 -3.970361114863000
v 2.424786185555000 -1.357956268818000 -3.787762541098000
v 2.434236446134000 -1.364770877923000 -3.965771842919000
v 2.437468470846000 -1.188258585528000 -3.736671570531000
v 2.457867064924000 -1.096731831202000 -3.964323418397000
v 2.447202805343000 -1.088134199123000 -3.768664198485000
v 2.459865361969000 -1.069364553100000 -3.961639712373000
v 2.432986486004000 -1.262732200389000 -3.760466515545000
v 2.435347088749000 -1.261184921636000 -3.799091958210000
v -2.599231719346000 2.021128085546000 -3.931455230472000
v -2.578594613062000 2.046228531010000 -3.765090211674000
v 1.114165689345000 3.008441929675000 -3.818064193020000
v 1.234432532827000 2.961164087531000 -3.827127152249000
v 1.174896517486000 2.987488388105000 -3.900672058705000
v -2.578353494205000 -0.667425920597000 -3.940704048899000
v -2.602307224922000 -0.500750010977000 -3.874462443167000
v -2.583114420667000 -0.640549739290000 -3.941610533303000
v -2.566598896357000 -0.706747439403000 -3.877609230321000
v -2.564750897034000 -0.719677882368000 -3.882880885926000
v 0.150836013708000 3.075146276914000 -3.827659862722000
v 0.190328752122000 3.081326724181000 -3.894553441388000
v 0.322170508563000 3.085058222968000 -3.811957978848000
v 0.307970300346000 3.086115264257000 -3.847261020262000
v 2.283359896447000 0.890363111363000 -3.876514622868000
v 2.243510738043000 1.087584204835000 -3.867538885205000
v 2.249027656764000 1.082400444536000 -3.932538172962000
v -2.538370269432000 2.133421687262000 -3.950623645873000
v -2.535595506942000 2.132153564486000 -3.878924637256000
v -2.540196127625000 2.119257711518000 -3.819915366132000
v -2.578411186842000 2.063344414106000 -3.937081573874000
v -2.575567775055000 2.063108537215000 -3.876223683753000
v -1.442875412516000 -2.880039283649000 -3.831616239872000
v -1.530416470425000 -2.845011141158000 -3.836938481214000
v -1.458919545800000 -2.876434133922000 -3.867458957866000
v -1.537989398408000 -2.845192955512000 -3.877188432763000
v -1.528078485299000 -2.850518854029000 -3.893435815940000
v -2.730953845104000 1.471150185201000 -3.731128149607000
v -2.738625938126000 1.502875423065000 -3.949902060581000
v -2.716687219515000 1.581308407982000 -3.756460842259000
v -2.719253833574000 1.592183549163000 -3.830318122257000
v -2.375334199722000 -1.628932702169000 -3.933907590358000
v -2.368033152985000 -1.629809151567000 -3.835152085587000
v -2.344676272990000 -1.742172702964000 -3.938397382828000
v -2.343515569830000 -1.731615850470000 -3.881773846451000
v -0.018683657567000 -2.895965405290000 -3.839494616455000
v -0.026388424264000 -2.903822250789000 -3.960034075975000
v 0.035345634257000 -2.888682433901000 -3.839036446866000
v 0.123178511524000 -2.884006458466000 -3.964867670003000
v -1.294084463998000 -2.925832140976000 -3.806860584358000
v -1.224123895972000 -2.943330924255000 -3.790610972005000
v -1.225044294869000 -2.947389599338000 -3.857140388640000
v -1.270053848493000 -2.937151212275000 -3.883359323733000
v -1.299453203545000 -2.926768954378000 -3.843356144712000
v 2.369555980269000 -1.633547483335000 -3.826853683477000
v 2.406258222597000 -1.493481045597000 -3.817922805030000
v 2.370067669632000 -1.632939901373000 -3.834040024554000
v 2.405873107856000 -1.511405884558000 -3.907448110074000
v 2.022545132625000 -2.245529914552000 -3.944401914417000
v 2.025158583588000 -2.241016054115000 -3.859222384862000
v 1.977493674896000 -2.285879569210000 -3.944331491069000
v 1.973547170034000 -2.288177905820000 -3.895865213263000
v 2.284279749291000 -1.867862960005000 -3.811541297923000
v 2.312403133593000 -1.804164269376000 -3.821964251424000
v 2.297584848845000 -1.846470732983000 -3.887084113682000
v 1.841413255617000 -2.391737962470000 -3.953567688039000
v 1.761054346448000 -2.445578617492000 -3.964136461232000
v 1.833213264700000 -2.396285652391000 -3.886399325335000
v 1.762503272640000 -2.444499069988000 -3.956102096586000
v -2.295519055649000 -1.864452496516000 -3.786596175807000
v -2.328982480583000 -1.759821152701000 -3.808661960998000
v -2.315972181411000 -1.822973022162000 -3.868358097245000
v -2.326728188273000 -1.782186083647000 -3.853709927870000
v -2.245130175213000 -2.005889057913000 -3.748810095408000
v -2.231823059580000 -2.047953425680000 -3.767665389397000
v -2.263976724043000 -1.955506029212000 -3.763655136442000
v -2.250681536312000 -2.031903146599000 -3.937858214812000
v -2.273243799128000 -1.940524837177000 -3.815220767719000
v 0.872895923545000 3.075161349784000 -3.958858896666000
v 0.885112707312000 3.063120183102000 -3.753279282337000
v 0.896414960504000 3.072122789335000 -3.953913075859000
v 0.805708440007000 3.070563535847000 -3.715350921530000
v 0.805584112888000 3.071474368711000 -3.732738350358000
v -0.576410376578000 2.987594066878000 -3.827757679112000
v -0.560287193802000 2.994919343442000 -3.947485147382000
v -0.655547719780000 2.973877803810000 -3.830289906740000
v -0.752205404506000 2.961005209502000 -3.936364016362000
v -1.425419866419000 -2.886045869179000 -3.829437113911000
v -1.342972319918000 -2.911864043774000 -3.816226641209000
v -1.366546291088000 -2.911909946954000 -3.921097826195000
v -1.354991632747000 -2.913947536568000 -3.897733209917000
v 2.456509050015000 -0.948596771223000 -3.806376214315000
v 2.456700963654000 -0.863904703925000 -3.820460345739000
v 2.462168026960000 -0.894144181001000 -3.906394331904000
v 1.383879742814000 2.889450366966000 -3.933507530631000
v 1.423791400390000 2.862174952708000 -3.940286910821000
v 1.385210861338000 2.884960485023000 -3.855243291432000
v 1.435332537182000 2.848449995719000 -3.814262528894000
v -0.010940477007000 3.062859415749000 -3.837503754631000
v -0.091007201748000 3.058757828492000 -3.931215682955000
v -0.010512815378000 3.062899348038000 -3.837490411553000
v 0.041111698226000 3.071163176072000 -3.928956898990000
v 1.720561435382000 2.564274070009000 -3.897620296138000
v 1.763419323881000 2.494587604111000 -3.828896663447000
v 1.772707843953000 2.483799570936000 -3.858776967526000
v 1.723706995527000 2.552536882519000 -3.823857431274000
v 1.716649448086000 2.568446589822000 -3.881186028184000
v -2.094988963138000 -2.336908054779000 -3.936958307959000
v -2.054932384865000 -2.380865320819000 -3.838668493084000
v -2.055311833199000 -2.381629718017000 -3.849194141116000
v -2.103303243742000 -2.313057034565000 -3.837694514390000
v -2.096233582188000 -2.335159946261000 -3.936906029109000
v 1.534908177650000 0.871567540300000 -2.697968415065000
v 0.122254091294000 0.145386747649000 -1.552272112338000
v 1.660905709160000 -0.168283328843000 -2.692775549608000
v 0.116787953760000 0.142741721835000 -1.548231845347000
v 0.121459444472000 0.140945133188000 -1.551697087493000
v 1.532984165101000 0.352226424536000 -2.596452389532000
v 0.127495783662000 0.146838296932000 -1.556149780031000
v -0.507095760220000 0.027126467082000 -1.554526343554000
v -1.720402303354000 -0.148136915371000 -2.469322193398000
v -0.515510028485000 0.024482251555000 -1.560874409813000
v -1.903958730212000 0.407698927735000 -2.606101373081000
v -0.503205074696000 0.029385300984000 -1.551588175503000
v 1.640869310721000 1.671720611045000 -3.011482004574000
v 1.646840880453000 1.684974008917000 -3.025683346295000
v 0.561898695421000 2.585468020352000 -2.916285442744000
v 0.557057137289000 2.580849727372000 -2.909347250915000
v 0.962981807412000 2.045581576873000 -2.802145514827000
v 0.563716544479000 2.565375121448000 -2.902589969815000
v 0.972682103068000 2.037003040412000 -2.802729784934000
v 1.635899824215000 1.664541219367000 -3.002538965817000
v 1.629198228036000 1.665503821334000 -2.998428146537000
v 1.523161724841000 2.773917564965000 -3.749783271261000
v 1.539678185947000 2.758922370708000 -3.750487790139000
v 1.950587120546000 -0.885966322295000 -3.000158577533000
v 1.944350580905000 -0.878787827062000 -2.991262222463000
v 1.933034106834000 -0.884034564759000 -2.983891152589000
v 1.251165638864000 -2.050905650890000 -2.948148201165000
v 1.526087013867000 -1.339092421538000 -2.846700930968000
v 2.184446983267000 -2.051086801520000 -3.763856215270000
v 2.196131659807000 -2.030949222272000 -3.764400658140000
v 2.185797762296000 -2.049040395359000 -3.764054313721000
v -1.209950441787000 -1.893439224176000 -2.786009231618000
v -0.812863139216000 -2.329808033668000 -2.876211604122000
v -1.219928133758000 -1.887043416605000 -2.787369218740000
v -1.785901044715000 -1.615575539657000 -2.937002388769000
v -1.783300256001000 -2.682402383651000 -3.782104649817000
v -1.785287279771000 -2.680479440520000 -3.781860161145000
v -2.284455806409000 1.170743307914000 -2.990391537376000
v -1.533173491309000 2.246723265796000 -2.862093169872000
v -2.276674113819000 1.162038020683000 -2.978760454326000
v -1.812176015352000 1.641653476637000 -2.803093017354000
v -2.264822852552000 1.168284158852000 -2.971169228233000
v -1.532405100162000 2.246237425649000 -2.861138651932000
v -1.809777099752000 1.645438226232000 -2.802864501316000
v -2.513587263102000 2.150509406021000 -3.708331356458000
v -2.503036443989000 2.167032568779000 -3.707262584151000
v 2.200264593659000 -2.005542763057000 -3.992346348258000
v 1.424613918586000 -2.065273030621000 -4.365254320200000
v 1.426410359989000 -2.066728470666000 -4.363847572392000
v 1.958049854816000 -1.266351586703000 -4.367028892745000
v 1.415689701472000 -2.052923078147000 -4.373987187207000
v 1.362092704604000 -1.439483994223000 -4.610189316019000
v -1.787131451392000 -2.690101618184000 -3.984683654069000
v -1.774250933488000 -1.832106712691000 -4.370094654688000
v -1.067033276191000 -2.422991063220000 -4.383429525968000
v -1.771856459578000 -1.828615701629000 -4.372574538454000
v -1.178354449042000 -1.819100886781000 -4.607832347435000
v -2.233444341507000 1.405491269595000 -4.362799765747000
v -2.527324326161000 2.129824500626000 -3.959976324678000
v -2.219311112737000 1.400621239697000 -4.371152133058000
v -1.657628034042000 2.198285318502000 -4.338551445980000
v -1.588913940472000 1.519375558640000 -4.620136911908000
v -1.578841935992000 1.532027607156000 -4.620159710210000
v 1.538863007796000 1.900544088246000 -4.358752319847000
v 1.541880385490000 1.905204099296000 -4.355501316096000
v 0.725343718851000 2.555705789220000 -4.359281669703000
v 1.535781759844000 1.898584073882000 -4.360789650769000
v 0.850728927011000 1.882080764473000 -4.621618180591000
v 0.859778359027000 1.874796197707000 -4.621610768089000
v 1.515829917683000 2.790594596134000 -3.959397997482000
v 1.506371907210000 2.798536007597000 -3.959255460415000
v 1.512420073569000 2.793689785318000 -3.959240241115000

# 300 faces

f 8 1 537 544 525 530 527
f 18 132 133 83 13 16 17 20
f 31 259 258 27 30 533 535
f 38 4 3 86 85 2 563 567 36 39
f 5 67 65 9 10 543 541
f 9 65 66 11 12
f 11 66 68 33 34 32 558 556 23
f 33 68 67 5 6 35 568 565
f 50 591 588 47 41 49
f 58 575 572 42 51 60
f 53 43 44 582 584 63 61
f 54 45 46 48 56 64
f 546 189 286 285 229 231 130 426 425 127 316 314 110 492 494 269 539
f 538 78 215 216 320 318 97 256 516 518 261 107 105 547
f 78 538 537 1 88 172 174 437 438 412 410 207 209 279 277
f 88 1 8 549 548 417 419 176 504 505 165 100 101 163 161
f 417 548 554 117 475 476 151 467 468 93 415 421
f 14 80 398 400 155 160 159 384 386 204 92 234 236 293 291 553 551 15
f 80 14 13 83 245 247 342 344 125 404 402 306 304
f 132 18 25 22 295 296 169 154 310 312 253 148 458 460
f 295 22 557 560 193 99 181 179 91 446 445 500 501 462 463 298
f 28 486 487 264 266 187 186 357 523 521 351 348 194 561 559 29
f 486 28 27 258 396 394 429 431 136 113 483 482 488
f 259 31 564 562 73 221 224 406 408 184 121 243 241 102 260
f 73 562 569 374 104 338 340 199 144 146 255 452 450
f 563 2 75 217 219 158 157 360 362 283 281 249 251 274 375 570
f 75 2 85 496 498 138 119 300 355 353 206 214 212
f 86 3 540 539 269 270 365 367 435 433 513 511 202 200
f 35 6 7 4 38 40 37
f 540 3 4 7 542
f 542 7 6 5 541
f 543 10 528 526 545
f 545 526 531 525 544
f 8 527 529 550 549
f 550 529 528 10 9 12 552
f 15 551 552 12 11 23 24
f 16 13 14 15 24 26 19
f 16 19 21 17
f 20 17 21
f 18 20 21 19 26 25
f 22 25 26 24 23 556 557
f 29 559 558 32 536 532
f 30 27 28 29 532 534
f 30 534 533
f 31 535 536 32 34 566 564
f 33 565 566 34
f 568 35 37 36 567
f 36 37 40 39
f 39 40 38
f 41 47 89 162 164 196 195 166 167 177 420 418 72
f 115 571 574 49 41 72 414 416 94 109 108 152 153 118
f 399 81 573 571 115 116 292 294 237 235 471 473 387 385 478 479 156 401
f 84 42 572 573 81 305 307 403 405 124 112 345 343 248 246
f 69 52 51 42 84 134 461 459 149 147 308 309 170 168
f 178 77 577 579 52 69 388 389 347 346 171 290 288 180
f 265 82 578 577 77 322 325 268 302 303 520 524 358 188 267
f 90 43 53 580 578 82 183 327 456 454 140 142 135 428 430 395 393
f 44 43 90 226 227 103 123 122 381 382 185 223 222 74
f 440 71 583 582 44 74 150 371 369 145 337 339 423 443
f 218 76 55 585 583 71 273 275 252 250 282 284 276 363 361 333 334 220
f 87 45 54 55 76 213 331 329 205 299 301 120 139 499 497
f 46 45 87 201 203 512 514 137 211 368 366 192 191 70
f 590 48 46 70 491 493 111 315 317 128 129 232 230 507 508 190 595
f 377 79 589 594 106 238 240 131 96 98 319 321 378
f 89 47 588 589 79 278 280 210 208 411 413 95 175 173
f 56 48 590 592
f 591 50 57 593
f 49 574 576 59 57 50
f 59 576 575 58
f 52 579 581 62 60 51
f 580 53 61 62 581
f 586 63 584
f 585 55 54 64 587
f 60 62 61 63 586 587 64 56 592 593 57 59 58
f 67 68 66 65
f 388 69 168 297 391
f 491 70 191 271 495
f 273 71 440 441 376
f 414 72 418 422
f 150 74 222 221 73 450 451
f 292 116 555 553 291
f 213 76 218 217 75 212
f 322 77 178 182 99 193 323
f 278 79 377 379 215 78 277
f 305 81 399 398 80 304
f 183 82 265 264 487 489
f 106 594 596 189 546 547 105
f 134 84 246 245 83 133
f 171 346 502 500 445 447
f 152 108 469 467 151
f 302 268 349 352
f 333 361 360 157 335
f 129 128 127 425 427
f 86 200 201 87 497 496 85
f 308 147 254 313
f 478 385 384 159 480
f 112 124 126
f 144 199 341 337 145
f 299 205 354 356
f 166 195 197 100 165
f 114 141 140 454 455
f 381 122 121 184 383
f 436 211 137 434
f 162 89 173 172 88 161
f 411 208 207 410
f 517 257 96 131 515
f 90 393 397 260 102 228 226
f 428 135 432
f 282 250 249 281
f 471 235 234 92 472
f 91 179 180 288 289
f 229 285 509 507 230
f 97 318 319 98
f 357 186 359
f 437 174 175 95 439
f 475 117 118 153 477
f 149 459 458 148
f 119 138 139 120
f 244 123 103 242
f 239 107 261 262
f 372 255 146 370
f 342 247 248 343
f 163 101 198 196 164
f 154 169 170 309 311
f 512 203 202 511
f 109 94 93 468 470
f 160 155 156 479 481
f 328 490 488 482 484
f 407 225 223 185 409
f 347 389 390 464 465
f 338 104 424 423 339
f 365 270 272 192 366
f 332 214 206 330
f 141 114 113 136 143
f 324 194 348 350 326
f 315 111 110 314
f 158 219 220 334 336
f 504 176 177 167 506
f 210 280 279 209
f 252 275 274 251
f 403 307 306 402
f 283 362 364 276 284
f 237 294 293 236
f 187 266 267 188
f 233 130 231
f 287 190 508 510
f 320 216 380 378 321
f 446 91 289 448
f 92 204 474 472
f 94 416 415 93
f 95 413 412 438 439
f 98 96 257 256 97
f 181 99 182
f 520 303 522
f 198 101 100 197
f 103 227 228 102 241 242
f 429 394 395 430
f 104 374 442 444 424
f 238 106 105 107 239
f 469 108 109 470
f 406 224 225 407
f 111 493 492 110
f 345 112 126 125 344
f 483 113 114 455 457 485
f 555 116 115 118 117 554
f 120 301 300 119
f 243 121 122 123 244
f 124 405 404 125 126
f 316 127 128 317
f 232 129 427 426 130 233
f 515 131 240 263 519
f 461 134 133 132 460
f 136 431 432 135 142 143
f 513 433 434 137 514
f 138 498 499 139
f 143 142 140 141
f 146 144 145 369 370
f 148 253 254 147 149
f 371 150 451 453 373
f 153 152 151 476 477
f 310 154 311
f 155 400 401 156
f 335 157 158 336
f 480 159 160 481
f 164 162 161 163
f 167 166 165 505 506
f 297 168 170 169 296
f 462 501 503 466
f 290 171 447 449
f 174 172 173 175
f 176 419 420 177
f 178 180 179 181 182
f 327 183 489 490 328
f 185 382 383 184 408 409
f 188 358 359 186 187
f 286 189 596 595 190 287
f 392 298 463 464 390
f 271 191 192 272
f 323 193 560 561 194 324
f 198 197 195 196
f 341 199 340
f 203 201 200 202
f 204 386 387 473 474
f 206 353 354 205 329 330
f 209 207 208 210
f 368 211 436 435 367
f 331 213 212 214 332
f 216 215 379 380
f 219 217 218 220
f 224 221 222 223 225
f 228 227 226
f 230 232 233 231 229
f 236 234 235 237
f 240 238 239 262 263
f 244 242 241 243
f 247 245 246 248
f 251 249 250 252
f 313 254 253 312
f 452 255 372 373 453
f 256 257 517 516
f 259 260 397 396 258
f 263 262 261 518 519
f 266 264 265 267
f 349 268 325 326 350
f 271 272 270 269 494 495
f 275 273 376 375 274
f 363 276 364
f 280 278 277 279
f 284 282 281 283
f 286 287 510 509 285
f 290 449 448 289 288
f 294 292 291 293
f 391 297 296 295 298 392
f 301 299 356 355 300
f 303 302 352 351 521 522
f 307 305 304 306
f 312 310 311 309 308 313
f 317 315 314 316
f 321 319 318 320
f 322 323 324 326 325
f 328 484 485 457 456 327
f 332 330 329 331
f 335 336 334 333
f 340 338 339 337 341
f 344 342 343 345
f 466 503 502 346 347 465
f 352 349 350 348 351
f 356 354 353 355
f 358 524 523 357 359
f 361 363 364 362 360
f 367 365 366 368
f 372 370 369 371 373
f 376 441 442 374 569 570 375
f 380 379 377 378
f 383 382 381
f 386 384 385 387
f 391 392 390 389 388
f 393 395 394 396 397
f 400 398 399 401
f 405 403 402 404
f 408 406 407 409
f 413 411 410 412
f 416 414 422 421 415
f 418 420 419 417 421 422
f 424 444 443 423
f 426 427 425
f 431 429 430 428 432
f 436 434 433 435
f 439 438 437
f 444 442 441 440 443
f 448 449 447 445 446
f 452 453 451 450
f 456 457 455 454
f 460 458 459 461
f 465 464 463 462 466
f 469 470 468 467
f 474 473 471 472
f 477 476 475
f 480 481 479 478
f 485 484 482 483
f 490 489 487 486 488
f 494 492 493 491 495
f 498 496 497 499
f 502 503 501 500
f 506 505 504
f 509 510 508 507
f 514 512 511 513
f 518 516 517 515 519
f 520 522 521 523 524
f 530 525 531
f 526 528 529 527 530 531
f 535 533 534 532 536
f 545 544 537 538 547 546 539 540 542 541 543
f 550 552 551 553 555 554 548 549
f 556 558 559 561 560 557
f 565 568 567 563 570 569 562 564 566
f 572 575 576 574 571 573
f 580 581 579 577 578
f 587 586 584 582 583 585
f 590 595 596 594 589 588 591 593 592

