
# 140 vertices

v 1.503121002714000 1.269780067993000 -2.311482543422000
v 1.618967800965000 0.414269893946000 -2.058484428932000
v 2.007681820153000 -0.394875768291000 -2.273818025446000
v 2.397326877567000 -2.892416844205000 -2.915586082255000
v 2.368031061469000 -2.892066325283000 -2.899589795459000
v 0.092171679756000 -3.308526295389000 -2.417920763806000
v -0.840779601409000 -3.911404658177000 -2.961697700453000
v -1.852409957330000 -3.431461617172000 -3.010658625009000
v -2.010934599049000 -1.600155166136000 -2.374991845139000
v -2.153023711798000 -0.726573340242000 -2.179964466002000
v -2.542131246148000 0.112035400999000 -2.404119641727000
v -1.700110077352000 2.521030237310000 -2.444369640441000
v -0.480326974114000 0.691864011015000 -1.159207890949000
v -2.802486212919000 2.497707769269000 -2.965049361033000
v 1.361071667981000 3.015702022088000 -2.981493088463000
v 1.345008081937000 3.021616869551000 -2.978278387554000
v 1.361341324919000 3.005050770512000 -2.976433413310000
v -0.165933908725000 -0.164269165370000 -0.862358596203000
v 2.872937346789000 -1.934747450192000 -2.888007443771000
v 0.126513560121000 -1.072365780585000 -1.134814992322000
v 0.126053023584000 -1.071543208129000 -1.134444349750000
v -1.823154826602000 -3.439520776280000 -2.999965924691000
v -1.833878033505000 -3.435633994718000 -3.002498040218000
v -0.182712375995000 -0.194315861402000 -0.855874930544000
v 0.121240411998000 -1.061413674922000 -1.130397722937000
v -3.319504664885000 1.540587550249000 -2.972415001746000
v -0.188551918525000 -0.170388519777000 -0.856589912408000
v -0.479718838680000 0.689498711665000 -1.158011645209000
v -0.483903368740000 0.691542631012000 -1.160803191072000
v -0.477367368626000 0.684741671530000 -1.155904041391000
v 1.259638437028000 2.907555417909000 -4.374867574146000
v 2.764546141316000 -1.941267030971000 -4.362945580840000
v 2.311031111837000 -2.745560883806000 -4.364671831326000
v -0.859489336539000 -3.744589138299000 -4.370234287081000
v -1.717962100138000 -3.284815935258000 -4.377721826717000
v -3.125133436615000 1.414036696257000 -4.391856196657000
v -2.760730695926000 2.343882772799000 -4.384246205681000
v 1.574226806185000 0.399846028485000 -4.619679753553000
v 1.609426738779000 0.285696483591000 -4.619522576269000
v 0.722109811327000 -2.777533556579000 -4.614599742849000
v 0.635587141646000 -2.805226346184000 -4.614525030370000
v -1.944937694474000 -0.989267492611000 -4.616247969898000
v -1.028322132114000 -3.149034579420000 -4.613370536022000
v -2.039692817594000 -0.676244371709000 -4.616679665964000
v -1.069465895020000 2.410956114715000 -4.621670254504000
v -0.979368830084000 2.439025845580000 -4.621746906210000
v -0.172957306707000 -0.177582192608000 -0.853565988692000
v -0.172849707336000 -0.179019859090000 -0.853565988692000
v -0.183011780160000 -0.186517029191000 -0.853565988692000
v -0.173888078733000 -0.176199105796000 -0.853565988692000
v -0.173004514970000 -0.181901230577000 -0.853565988692000
v -0.180421361192000 -0.191281922896000 -0.853565988692000
v -0.175564322550000 -0.195549318948000 -0.853565988692000
v -0.183884789624000 -0.172068422088000 -0.853565988692000
v -0.183111944456000 -0.168993716564000 -0.853565988692000
v 2.682926498175000 -3.180515468507000 -3.559811964477000
v 2.700449166455000 -3.164599236333000 -3.797696479327000
v 2.699234149093000 -3.174621957074000 -3.578568235418000
v -2.131207538580000 -3.669389486938000 -3.580620816980000
v -0.908894334593000 -4.295641460805000 -3.584939721895000
v -2.138583749305000 -3.664713083963000 -3.590346150747000
v -3.736469675540000 1.623492638454000 -3.610721540661000
v -3.101853013177000 2.768725699052000 -3.832859206898000
v 1.672652434454000 3.278570108170000 -3.624646919348000
v 1.684934137998000 3.271209106220000 -3.640848867372000
v 1.682908485920000 3.253674784089000 -3.857125500870000
v 0.446759711506000 3.854915885755000 -3.857170861852000
v -1.749755423857000 -3.476475178356000 -2.998025759389000
v -2.066058318876000 -3.702857053087000 -3.579890507896000
v -1.069640866753000 2.602411739707000 -2.261767202531000
v -0.484394071775000 2.902841909184000 -2.472952098853000
v -0.486468621138000 0.709098213755000 -1.168745853699000
v -0.482867986147000 0.700002810783000 -1.163539523106000
v 1.332718212704000 -2.917066185361000 -2.398407605055000
v 0.170738121315000 -1.123005825290000 -1.171453965599000
v 0.703319615781000 -3.017199654202000 -2.239403096468000
v 0.147348272911000 -1.093199098116000 -1.149730824601000
v 0.134830843636000 -1.083593588007000 -1.141098594231000
v 2.887252778175000 -1.958080521706000 -2.899275768633000
v 2.890417809561000 -1.965490613034000 -2.902021664834000
v 3.335342757452000 -2.001073811323000 -3.606845678016000
v 3.340555375179000 -2.018071030251000 -3.609849081636000
v 0.386590024740000 3.464178999446000 -2.980608929992000
v 0.417267698950000 3.474899735626000 -2.993108433017000
v 0.430236006821000 3.859177095973000 -3.627087955255000
v 0.459329768198000 3.867719116169000 -3.636251471252000
v 2.570951913389000 -2.582416123177000 -2.915777135343000
v 2.885287899696000 -2.839496602921000 -3.576405860022000
v 2.890954034588000 -1.966413425665000 -2.902592282026000
v 3.336368019758000 -2.025945291020000 -3.600614333300000
v 1.117330117990000 3.140165612738000 -2.986110505110000
v 1.237777061553000 3.490691327786000 -3.617592160918000
v 0.422002132724000 3.476805287802000 -2.995453073287000
v 0.467708525396000 3.864257338150000 -3.629086511080000
v -2.825539772057000 2.498385047531000 -2.977910276811000
v -3.336452537956000 1.568074146859000 -2.986589828739000
v -3.330311982729000 1.576306945644000 -2.984170875434000
v -3.735683631304000 1.624965349907000 -3.608723238697000
v -3.097724936684000 2.779730997301000 -3.592483770662000
v -3.099211436906000 2.779205181178000 -3.594221143357000
v -0.847585705791000 -3.916186943056000 -2.966323558176000
v -0.911080476969000 -4.294764736977000 -3.582287152056000
v -0.912677148271000 -3.885113782502000 -2.968963986503000
v -0.949548688985000 -4.275081572533000 -3.581868450093000
v 2.384138275204000 -2.727808490762000 -4.359020538103000
v 3.331476849992000 -2.013565426686000 -3.830691164814000
v 2.702863061157000 -3.160111114132000 -3.801588658104000
v 3.334287537717000 -2.021732089500000 -3.823317414784000
v -0.866978207774000 -3.747451966496000 -4.369721537425000
v -1.709220991937000 -3.320050693697000 -4.375717229147000
v -0.884309308791000 -4.277597920949000 -3.821291499886000
v -0.895692891972000 -4.281568732869000 -3.811451196767000
v -2.131363145185000 -3.644822830953000 -3.830117999141000
v -2.130871128828000 -3.646765155870000 -3.828391657912000
v -3.727129130572000 1.632617015566000 -3.829924286486000
v -3.103573439990000 2.765541178075000 -3.835604739893000
v -3.727690450804000 1.634215642215000 -3.828512297268000
v 1.679767957223000 3.254972943562000 -3.859803895955000
v 0.463249671081000 3.845610779342000 -3.872173091929000
v 0.424774359292000 3.338361101562000 -4.385912210072000
v 1.251645659280000 2.939353788931000 -4.373112198271000
v 0.422939521757000 3.329830395875000 -4.389995158003000
v 0.614200072461000 2.690154495768000 -4.622735720641000
v 0.603676040585000 2.695601701124000 -4.622739817732000
v 1.256490017226000 2.967499149191000 -4.359911325768000
v 0.444406173227000 3.356079238385000 -4.373899747234000
v 2.786007190962000 -2.000299218706000 -4.359732531387000
v 2.156235400900000 -2.110310575537000 -4.616149514367000
v 2.151790119205000 -2.118407182050000 -4.616135694440000
v 2.803748192141000 -2.017283595961000 -4.347505460418000
v 2.384926996008000 -2.724663006261000 -4.360020592556000
v -1.030101460926000 -3.151831032939000 -4.612432157464000
v -0.873005692383000 -3.741840005570000 -4.372363263157000
v -1.708796814728000 -3.320144047825000 -4.375838280939000
v -3.186402562264000 1.592410658067000 -4.384160276711000
v -2.777090138914000 2.339947421530000 -4.383021943163000
v -2.565272324637000 1.692437063392000 -4.620020028762000
v -2.549851018527000 1.720207975983000 -4.620067497394000
v -3.186556299245000 1.592588331933000 -4.384055401097000
v -2.781946218739000 2.340502527326000 -4.380870828420000

# 72 faces

f 81 65 64 15 17 1 2 3 19 79
f 102 60 56 4 5 74 76 6 7 101
f 61 59 8 9 10 11 26 96 98 62
f 95 14 12 70 71 83 85 99
f 127 32 31 121 125 118 66 106 130
f 109 34 33 105 107 57 111
f 135 36 35 110 113 115 139
f 120 37 136 140 116 63 67 119 126
f 31 32 39 38
f 33 34 41 40
f 35 36 44 42
f 37 120 122 46 45
f 68 22 23 8 59 69
f 91 16 15 64 92
f 87 4 56 58 88
f 70 12 72
f 83 71 73 13 84
f 84 13 28 30 16 91 93
f 136 138 137 135 139 140
f 18 1 17
f 2 1 18 50 47
f 3 2 47 48
f 19 3 48 51
f 80 77 75 5 4 87 89
f 133 134 132
f 74 5 75
f 6 76 78 20
f 7 6 20 21
f 101 7 21 25 22 68 103
f 24 9 8 23
f 9 24 52 49 10
f 10 49 54 27 11
f 11 27 26
f 29 14 95 97
f 14 29 28 13 73 72 12
f 50 18 17 15 16 30 55
f 53 25 21 20 78 77 80 79 19 51
f 25 53 52 24 23 22
f 29 97 96 26 27 54 55 30 28
f 121 31 38 123
f 39 32 127 128
f 131 105 33 40 129
f 41 34 109 133 132 43
f 43 132 134 110 35 42
f 44 36 135 137
f 136 37 45 138
f 46 122 124
f 44 137 138 45 46 124 123 38 39 128 129 40 41 43 42
f 49 52 53 51 48 47 50 55 54
f 106 66 65 81 82 108
f 108 82 90 88 58 57 107
f 111 57 58 56 60 112
f 112 60 102 104 69 59 61 114
f 115 113 114 61 62 117
f 117 62 98 100 63 116
f 99 85 86 67 63 100
f 67 86 94 92 64 65 66 118 119
f 103 104 102 101
f 72 73 71 70
f 131 129 128 127 130
f 75 77 78 76 74
f 121 123 124 122 120 126 125
f 126 119 118 125
f 90 82 81 79 80 89
f 94 86 85 83 84 93
f 90 89 87 88
f 94 93 91 92
f 95 99 100 98 96 97
f 103 68 69 104
f 107 105 131 130 106 108
f 113 110 134 133 109 111 112 114
f 116 140 139 115 117

