
# 152 vertices

v 1.861298071238000 -2.929980248159000 -3.948652883210000
v 1.857221382402000 -2.931376010719000 -3.948652883210000
v 1.861339376827000 -2.929950760476000 -3.951318405649000
v 1.743624481192000 -3.002881413989000 -3.857743795851000
v 1.804241857028000 -2.982127447452000 -3.857743795851000
v 1.756029865688000 -3.017509047862000 -3.834202276255000
v 1.741969052591000 -3.014160865526000 -3.844382562118000
v 1.743566132485000 -3.013509924479000 -3.844512447295000
v 1.794298497013000 -2.957224784725000 -3.909639000539000
v 1.859510693958000 -2.934897659299000 -3.909639000539000
v 1.857229296394000 -2.942916834523000 -3.896369453163000
v 1.826503240125000 -2.944845569246000 -3.921899821324000
v 1.802589734912000 -2.877295854862000 -4.010677845656000
v 1.748398590535000 -2.879425030724000 -4.010677845656000
v 1.794473890137000 -2.875245525581000 -4.016651542654000
v 1.703862088121000 -2.945645879752000 -3.934048584964000
v 1.801116899414000 -2.941824727809000 -3.934048584964000
v 1.734840671285000 -2.947925804535000 -3.931906245210000
v 1.793312062951000 -2.935363968366000 -3.951174758652000
v 1.795329146174000 -2.929494800046000 -3.962581702491000
v 1.857577471890000 -2.925534178933000 -3.963985181923000
v 1.829488093624000 -2.927588634254000 -3.963104280985000
v 1.808845303750000 -2.929717702803000 -3.961883191346000
v 1.819688946114000 -2.929697229889000 -3.959866929529000
v 1.598574199257000 -2.924486372075000 -3.959866929529000
v 1.683427736141000 -2.999676146271000 -3.867636066322000
v 1.650932779020000 -2.991313005031000 -3.869200254582000
v 1.745435521372000 -2.993540085587000 -3.869200254582000
v 1.704475613180000 -2.954449351766000 -3.921899821324000
v 1.397280374934000 -2.927942474867000 -3.948532540700000
v 1.858922298376000 -2.925272112101000 -3.963104280985000
v 1.740401523494000 -3.013758984608000 -3.844512447295000
v 1.862479286402000 -2.926065911726000 -3.960505124221000
v 3.119153845770000 1.845884277387000 -3.834788299930000
v 1.471474169642000 -0.326167656071000 -2.097895191296000
v 1.831509620077000 -2.963819427297000 -3.804113575744000
v 1.855780245871000 -2.945510002235000 -3.835532063252000
v 1.762355280124000 -3.013711744490000 -3.804085727433000
v -0.336291729615000 -1.361680243397000 -2.055496792567000
v -3.046271794930000 -1.747393710464000 -3.827290507654000
v -0.770523376482000 -2.364075775853000 -3.844111855831000
v 1.757260943347000 -3.017190271996000 -3.811821255149000
v -3.080484493071000 -1.735247905080000 -3.836385289942000
v -1.431443734805000 0.410304470365000 -2.086896145655000
v -1.798020341181000 3.173393406016000 -3.863293864228000
v -1.777739602675000 3.182622875194000 -3.857040853159000
v 0.387717167976000 1.498500373422000 -2.070048292624000
v 3.088730961293000 1.863447060886000 -3.824212691178000
v 1.771611630635000 -2.854813174237000 -4.036133089899000
v 1.600232458323000 -2.191135962662000 -4.274602533533000
v 2.496314634334000 1.211695654434000 -4.272136950161000
v 3.121629833902000 1.849494085468000 -3.955952867964000
v 1.324769043430000 -2.909620446643000 -3.963963971002000
v -0.668477545268000 -2.393650682151000 -3.955499136621000
v -3.083757528125000 -1.739645727296000 -3.965691653293000
v -3.062282366612000 -1.727122160050000 -3.978627848478000
v -2.268491206310000 -1.525691456881000 -4.271048252466000
v 1.164205631820000 -2.427098035922000 -4.276517819970000
v 1.259735882717000 -2.514549240605000 -4.232368640583000
v 1.413217947414000 -2.863712015587000 -4.013214735239000
v -3.085138349775000 -1.739253485734000 -3.964641795709000
v -1.798676543652000 3.183407408968000 -3.979721399520000
v -1.575345906377000 2.325692882952000 -4.294170943799000
v -2.475646068845000 -1.095399879158000 -4.279262376499000
v 2.251611221437000 1.635997420987000 -4.276525644201000
v -1.167572517345000 2.583317551233000 -4.277987995058000
v -1.171930221875000 2.585545313621000 -4.277281816570000
v -1.796673961961000 3.190844972992000 -3.977650076710000
v -1.795793530255000 3.193961944847000 -3.975317647560000
v 3.124550845928000 1.860742106589000 -3.952388412752000
v 3.124222811400000 1.859452321127000 -3.953346568046000
v 1.594705523479000 -2.178286756016000 -4.279604823872000
v 1.468020334956000 -0.364573939999000 -4.618167837744000
v 2.474734735488000 1.195905420076000 -4.281946982533000
v -2.222887754400000 -1.506132546836000 -4.289245966778000
v -0.466516740380000 -1.409002792695000 -4.612966496516000
v 1.155610533973000 -2.416309663631000 -4.281407738692000
v -1.568949794645000 2.310667317791000 -4.300092758831000
v -1.478259139761000 0.522177451415000 -4.617023139765000
v -2.454846467538000 -1.079007352671000 -4.288870269709000
v 2.209319566788000 1.617719555575000 -4.293507721942000
v 0.399457192363000 1.541581955631000 -4.620935273825000
v 0.394285913565000 1.543018342548000 -4.620935432120000
v 1.202703893093000 -0.235405699440000 -1.746252222951000
v 3.121324890457000 1.854047630376000 -3.836263108156000
v 3.108943736885000 1.841335603101000 -3.822657515335000
v 1.191942973855000 -0.238839442561000 -1.735642867390000
v 1.818906664467000 -2.973161530516000 -3.794300064650000
v -0.262266455385000 -1.116490456128000 -1.737971247221000
v 1.768788955137000 -3.009237031419000 -3.797526107767000
v -0.264713077389000 -1.109008363717000 -1.730590152377000
v -3.042844113335000 -1.734978292512000 -3.811369602766000
v -3.068283564956000 -1.741502011404000 -3.831331377761000
v -1.171035349591000 0.341667909197000 -1.752421866492000
v -3.081093309345000 -1.737530198303000 -3.836818323943000
v -3.080876430354000 -1.737332779020000 -3.836576126364000
v -3.037741999581000 -1.692982593914000 -3.789132684863000
v -1.160380390842000 0.345353514350000 -1.741915980702000
v -1.787597225291000 3.182899372418000 -3.855905612515000
v -1.789351839202000 3.185895046926000 -3.859399587532000
v -1.794379080613000 3.187618824479000 -3.866051915610000
v -1.784865573188000 3.179200753030000 -3.851676758640000
v 0.311095145898000 1.245836250911000 -1.741586023843000
v 0.313230818836000 1.239318473026000 -1.735144552167000
v 3.046726286745000 1.841081143723000 -3.777735944577000
v 3.111412898648000 1.857548066533000 -3.828633629093000
v 0.787176987515000 -0.136549577142000 -1.367629579527000
v 0.780388372656000 -0.135783189776000 -1.362005913326000
v 1.805071085980000 -2.983263350269000 -3.789579298064000
v 1.778296074339000 -3.002506437222000 -3.792481205674000
v -0.168904246839000 -0.723383704872000 -1.380398556267000
v -0.171229939409000 -0.729219402986000 -1.385578741558000
v -0.761380760440000 0.252060617457000 -1.381159859244000
v -0.739568982295000 0.249895224443000 -1.363125679584000
v -1.781169270725000 3.172851663853000 -3.845181722216000
v -1.774248778849000 3.162041968839000 -3.834038027632000
v -1.755178767098000 3.136515474438000 -3.807350980331000
v 0.218543395646000 0.856713810814000 -1.387016906543000
v 0.216692616682000 0.838992238874000 -1.372358614810000
v 1.797439852304000 -2.988803629453000 -3.788215245289000
v 0.358990280192000 -0.026932798963000 -1.027465900567000
v 0.357157944250000 -0.026770929170000 -1.026205873348000
v -0.061874192791000 -0.291910133843000 -1.037674125509000
v 1.787434295833000 -2.995999290917000 -3.789114499533000
v -0.060677759234000 -0.276736988548000 -1.027214852354000
v -3.081224756863000 -1.738000724926000 -3.837118528375000
v -3.081250635171000 -1.738091720238000 -3.837192858389000
v -0.316619397497000 0.146701342070000 -1.028251820930000
v -0.306353212739000 0.142274035352000 -1.020589141476000
v 0.107957248751000 0.407450316763000 -1.030799929547000
v 0.108213958040000 0.408033747295000 -1.031235189884000
v 3.101669668688000 1.851864171040000 -3.818935837251000
v 3.111462819916000 1.857535832399000 -3.828657092442000
v 3.121642299971000 1.855225126048000 -3.836814044077000
v 1.467137965192000 -0.364382424194000 -4.618495560373000
v 1.539840320553000 0.991598962248000 -4.620551549983000
v 1.561158949421000 1.003284964374000 -4.612979124842000
v 0.936696284699000 -1.474699856539000 -4.615514652343000
v 0.934921763770000 -1.471488522123000 -4.616634963308000
v -0.464267002480000 -1.400107279445000 -4.616203296248000
v -1.596761345507000 -0.834149272742000 -4.609721713355000
v -1.577793373390000 -0.822468079293000 -4.616638717670000
v -1.474005440493000 0.520749845486000 -4.618687580297000
v -0.939968292853000 1.650917995202000 -4.618032717892000
v -0.935830856358000 1.643766340813000 -4.620574265896000
v 0.027323599200000 0.087683707541000 -0.835810874779000
v -0.004377113096000 0.068479409457000 -0.835810874779000
v 0.016652651219000 0.033909329694000 -0.835810874779000
v 0.047996087044000 0.052555580696000 -0.835810874779000
v 1.749518475899000 -2.847902782863000 -4.042159185939000
v 1.616258014848000 -2.816618024457000 -4.068138059224000
v 1.344686776809000 -2.581866453585000 -4.196392555818000

# 78 faces

f 34 35 36 37
f 38 39 40 41 42
f 43 44 45
f 46 47 48
f 31 21 13 15 49 50 51 52 33
f 53 54 55 56 57 58 59 60
f 56 55 61 62 63 64
f 65 66 67 68 69 70 71
f 51 50 72 73 74
f 58 57 75 76 77
f 64 63 78 79 80
f 66 65 81 82 83
f 84 35 34 85 86
f 35 84 87 88 36
f 89 39 38 90
f 39 89 91 92 93 40
f 94 44 43 95 96 97
f 44 94 98 99 100 101 45
f 100 99 102 103 47 46
f 47 103 104 105 106 48
f 107 87 84 86
f 87 107 108 109 88
f 110 111 112 91 89 90
f 91 112 92
f 113 98 94 97
f 98 113 114 115 102 99
f 102 115 116 117 118 104 103
f 104 118 119 105
f 120 109 108 121 122
f 123 111 110 124
f 112 111 123 125 126 127 93 92
f 128 114 113 97 96 129
f 114 128 116 115
f 118 117 130 131 119
f 119 131 132 133 106 105
f 133 132 121 108 107 86 85 134
f 74 73 135 136 137
f 135 73 72 138 139
f 139 138 77 76 140
f 140 76 75 141 142
f 142 141 80 79 143
f 143 79 78 144 145
f 145 144 67 66 83
f 82 81 137 136
f 143 145 83 82 136 135 139 140 142
f 146 147 148 149
f 106 133 134 70 69 101 100 46 48
f 134 85 34 37 11 10 1 3 33 52 71 70
f 42 6 5 11 37 36 88 109 120 124 110 90 38
f 41 54 53 30 27 26 32 7 6 42
f 61 55 54 41 40 93 127
f 45 101 69 68 62 61 127 126 95 43
f 150 151 152
f 60 59 152 151
f 49 15 14 20 25 30 53 60 151 150
f 9 12 2 1 10
f 32 8 7
f 31 22 21
f 25 24 19 16 18 29 28 27 30
f 26 27 28
f 20 23 24 25
f 26 28 29 12 9 4 8 32
f 18 17 19 24 23 22 31 33 3 2 12 29
f 13 14 15
f 16 17 18
f 19 17 16
f 20 14 13 21 22 23
f 1 2 3
f 4 5 6 7 8
f 4 9 10 11 5
f 149 148 125 123 124 120 122
f 96 95 126 125 148 147 129
f 128 129 147 146 130 117 116
f 131 130 146 149 122 121 132
f 74 137 81 65 71 52 51
f 50 49 150 152 59 58 77 138 72
f 80 141 75 57 56 64
f 68 67 144 78 63 62

